<svg width="60" height="52" viewBox="0 0 60 52" fill="none" xmlns="http://www.w3.org/2000/svg">
<path fill-rule="evenodd" clip-rule="evenodd" d="M27.5506 0.105375C22.5997 0.545395 17.485 2.64065 13.5523 5.83956C12.3963 6.7799 10.566 8.62448 9.64403 9.77858C7.31284 12.6965 5.40251 16.6435 4.61023 20.1786C4.11269 22.3991 4 23.4786 4 26.0258C4 28.5731 4.11269 29.6526 4.61023 31.8731C5.4198 35.4853 7.37997 39.4887 9.78865 42.449C10.7291 43.6049 12.574 45.4349 13.7282 46.3567C16.6465 48.6876 20.594 50.5977 24.1296 51.3899C26.3504 51.8873 27.43 52 29.9776 52C32.5253 52 33.6049 51.8873 35.8257 51.3899C38.484 50.7942 41.9597 49.3091 44.2438 47.793C48.2052 45.1634 51.2478 41.7035 53.3251 37.4661C55.0071 34.0349 55.832 30.7707 55.9806 26.9584C56.2175 20.8831 54.279 14.9364 50.4392 9.95858C49.5813 8.84648 47.1593 6.42479 46.0471 5.56703C40.674 1.4234 34.2069 -0.486164 27.5506 0.105375ZM33.4356 1.97518C34.7909 2.17734 36.7236 2.65194 38.0494 3.10823C40.2332 3.85973 43.1438 5.46666 45.0744 6.98654C46 7.71526 48.2907 10.0057 49.0195 10.9312C50.5396 12.8615 52.1467 15.7717 52.8983 17.9552C53.8521 20.7259 54.2269 23.0035 54.2264 26.0258C54.2259 28.4934 54.0735 29.7758 53.5189 31.9798C51.3587 40.565 44.5187 47.4041 35.9324 49.564C33.7281 50.1185 32.4455 50.2708 29.9776 50.2713C26.9549 50.2719 24.677 49.8971 21.9059 48.9435C19.7221 48.192 16.8115 46.585 14.8809 45.0651C13.9553 44.3364 11.6646 42.046 10.9358 41.1205C9.4157 39.1902 7.80855 36.28 7.05695 34.0965C6.59135 32.7441 6.12513 30.8354 5.90534 29.3817C5.66095 27.7658 5.66095 24.2859 5.90534 22.67C6.30403 20.0334 7.01475 17.7378 8.15628 15.3991C9.4336 12.7824 10.7083 11.0059 12.832 8.88247C14.3214 7.3931 15.1055 6.74634 16.675 5.71204C19.9026 3.58506 23.7124 2.24202 27.6893 1.82925C28.9369 1.6998 32.1328 1.78095 33.4356 1.97518ZM28.7063 3.51814C24.096 3.80105 19.7123 5.45933 16.082 8.29368C14.7603 9.32555 14.7671 9.42002 16.2724 10.9454L17.416 12.1045L16.7555 12.7004L16.0949 13.2964L14.9664 12.1867C13.4617 10.7075 13.3508 10.7048 12.2477 12.1206C10.117 14.8553 8.5688 18.2473 7.84191 21.7731C7.57789 23.0538 7.56243 23.28 7.55856 25.9242C7.5549 28.4249 7.57901 28.8495 7.78689 29.939C9.44601 38.6326 15.5258 45.347 23.8618 47.6914C26.2478 48.3625 26.9209 48.4453 29.9776 48.4433C32.4742 48.4417 32.9001 48.4167 33.9441 48.2098C37.7387 47.4579 41.0138 45.9897 43.8847 43.7534C45.3987 42.5741 45.4183 42.6477 42.923 40.1413L40.9177 38.1271L41.4228 38.1251C41.7007 38.124 42.2255 38.0796 42.5891 38.0266L43.2502 37.9301L44.7261 39.4014C46.5771 41.2467 46.6444 41.2622 47.6106 40.0665C49.3381 37.9286 50.8088 35.1062 51.5828 32.443C53.8826 24.5301 51.8656 16.2625 46.1996 10.3784C41.6404 5.6435 35.2043 3.11951 28.7063 3.51814ZM31.2223 5.28188C36.5106 5.61919 40.9791 7.62679 44.6778 11.327C48.3273 14.9782 50.3321 19.3726 50.729 24.5908C51.0309 28.5604 50.068 32.7758 48.0595 36.2775C47.5331 37.1952 46.555 38.6356 46.458 38.6356C46.425 38.6356 46.0596 38.295 45.646 37.8787L44.8941 37.1219L45.2555 36.722C46.2075 35.6684 46.4691 34.8206 46.4433 32.8746L46.4243 31.4355L46.9799 30.8916C47.722 30.1652 48.0868 29.3834 48.1543 28.3738C48.2841 26.4354 47.1189 24.8303 45.2334 24.3501L44.7757 24.2334L44.7466 23.362L44.7174 22.4907L45.0831 22.4221C45.5511 22.3343 46.2037 21.747 46.3602 21.2727C46.5365 20.7389 46.4161 18.4377 46.1649 17.5346C45.7892 16.1844 45.4855 15.5094 44.7924 14.4839C43.615 12.7417 41.7584 11.3849 39.6527 10.7281C38.2746 10.2983 36.9597 10.2439 29.0623 10.2906C21.2698 10.3366 21.4059 10.3271 19.7215 10.9363L18.9748 11.2063L18.1705 10.4068C17.7282 9.96722 17.3662 9.57876 17.3662 9.54367C17.3662 9.40029 19.5033 8.05288 20.6565 7.46906C23.1037 6.23016 25.6907 5.49584 28.3504 5.28524C28.8818 5.24314 29.3852 5.20216 29.4691 5.19422C29.553 5.18629 30.3419 5.22575 31.2223 5.28188ZM38.7843 12.2998C42.3276 13.2059 44.7249 16.2809 44.7249 19.9201V20.7379H29.9776H15.2304V19.9201C15.2304 16.301 17.6136 13.2252 21.1314 12.3044C21.8548 12.115 22.2865 12.105 29.9359 12.0997C37.6872 12.0943 38.0091 12.1016 38.7843 12.2998ZM14.3359 13.996L15.0229 14.6778L14.661 15.336C13.9109 16.7005 13.5014 18.4143 13.5014 20.1892C13.5014 21.1391 13.635 21.57 14.0477 21.9505C14.3058 22.1885 14.315 22.2365 14.315 23.3364V24.4758L13.9963 24.6078C12.7418 25.1274 11.7763 26.6338 11.7735 28.076C11.7714 29.2029 12.24 30.2285 13.1208 31.0248L13.5323 31.3969L13.5131 32.8044C13.4908 34.4237 13.6289 35.1211 14.1413 35.9776C14.7928 37.0664 16.0345 37.8636 17.3416 38.0321C17.7187 38.0807 22.6273 38.122 28.2496 38.1238L38.4719 38.1271L40.6068 40.2663L42.7416 42.4055L42.4874 42.6058C41.1493 43.6601 38.5796 45.0479 36.8573 45.6463C32.4206 47.188 27.7831 47.2198 23.316 45.7392C20.2269 44.7153 17.6694 43.1212 15.2747 40.7268C12.88 38.3325 11.2857 35.7753 10.2617 32.6866C8.13696 26.2778 9.16205 19.4299 13.0664 13.95C13.3155 13.6005 13.5484 13.3144 13.5841 13.3144C13.6197 13.3144 13.9581 13.6212 14.3359 13.996ZM21.1685 14.4518C20.4492 15.1425 20.3304 15.4014 20.5215 15.8626C20.6717 16.2253 20.8973 16.3651 21.3321 16.3651C21.5759 16.3651 21.781 16.2413 22.212 15.8337C22.5211 15.5413 22.8226 15.2116 22.8819 15.1007C23.1862 14.5324 22.7913 13.8229 22.1707 13.8229C21.8837 13.8229 21.7101 13.9319 21.1685 14.4518ZM26.356 14.4584C25.5613 15.2358 25.4578 15.5652 25.8586 16.0416C26.0691 16.2916 26.2117 16.3651 26.4866 16.3651C26.7835 16.3651 26.9489 16.2629 27.4855 15.7477C28.1774 15.0834 28.309 14.8081 28.1431 14.3721C28.0004 13.9967 27.7574 13.83 27.3475 13.8261C27.0636 13.8234 26.8963 13.9301 26.356 14.4584ZM32.4011 14.5172C31.8307 15.0874 31.7066 15.2699 31.7066 15.5387C31.7066 16.0007 32.0933 16.3651 32.5834 16.3651C32.9115 16.3651 33.0455 16.2807 33.6052 15.7211C34.1864 15.1399 34.2493 15.0364 34.2493 14.6607C34.2493 14.332 34.1928 14.2 33.9813 14.0337C33.4906 13.6477 33.1735 13.7448 32.4011 14.5172ZM37.6501 14.4467C37.2927 14.7898 36.9721 15.1593 36.9377 15.2676C36.774 15.7834 37.2222 16.3651 37.7833 16.3651C38.0574 16.3651 38.2394 16.2582 38.6893 15.8327C39.5831 14.9874 39.6974 14.5913 39.2034 14.0517C39.0646 13.9 38.8769 13.8229 38.6469 13.8229C38.3603 13.8229 38.1867 13.9316 37.6501 14.4467ZM42.9959 23.331V24.1954H41.1201C39.2839 24.1954 39.2381 24.2006 38.9588 24.4408L38.6734 24.6861L38.6471 28.8898C38.6292 31.755 38.5843 33.1641 38.5064 33.3155C38.2309 33.8502 37.4155 33.8463 37.0877 33.3088C36.9122 33.0209 36.8943 32.7708 36.894 30.5958C36.8936 28.3297 36.8824 28.1877 36.6873 27.9784C36.4106 27.6814 36.0537 27.6056 35.709 27.7709C35.2382 27.9965 35.1678 28.2744 35.1661 29.9098C35.1647 31.3342 35.1533 31.4172 34.9236 31.6844C34.6118 32.0467 34.047 32.0718 33.7131 31.7382C33.4891 31.5144 33.4862 31.4728 33.4603 28.184C33.4432 26.0089 33.3953 24.781 33.322 24.6388C33.2603 24.5192 33.0984 24.3704 32.962 24.3083C32.7867 24.2284 30.2719 24.1954 24.3791 24.1954H16.044V23.331V22.4666H29.52H42.9959V23.331ZM31.7066 28.1134V30.3026L23.3922 30.2743L15.0778 30.246L14.5925 29.9608C14.3228 29.8023 13.9846 29.4859 13.8314 29.249C13.5976 28.8872 13.5554 28.7116 13.554 28.0938C13.5525 27.4482 13.587 27.3152 13.858 26.9244C14.0582 26.6356 14.354 26.3869 14.7154 26.2038L15.2669 25.9242H23.4867H31.7066V28.1134ZM44.9674 26.0492C45.4868 26.2044 46.1807 26.8792 46.3509 27.3948C46.6542 28.3138 46.2101 29.4628 45.3578 29.9636L44.8775 30.246H42.6399H40.4024L40.375 28.0851L40.3475 25.9242H42.4481C43.8155 25.9242 44.6949 25.9678 44.9674 26.0492ZM32.0613 32.3922C32.6151 33.4204 34.0573 33.9931 35.0928 33.5959C35.1957 33.5563 35.3119 33.6826 35.4666 34.0021C35.7563 34.6006 36.3957 35.1432 37.0348 35.333C37.6812 35.5249 37.9703 35.522 38.6037 35.3175C39.7263 34.955 40.3516 34.0431 40.3516 32.7684V32.0256H42.5382H44.7249V33.0753C44.7249 34.7198 44.3417 35.5049 43.2812 36.0333L42.7525 36.2967H29.9776H17.2028L16.6741 36.0333C15.6136 35.5049 15.2304 34.7198 15.2304 33.0753V32.0256H23.5471H31.8638L32.0613 32.3922Z" fill="white"/>
</svg>
