<svg width="60" height="52" viewBox="0 0 60 52" fill="none" xmlns="http://www.w3.org/2000/svg">
<path fill-rule="evenodd" clip-rule="evenodd" d="M40.9528 0.105573C40.49 0.23895 39.7565 0.995635 39.6226 1.47805C39.2987 2.64452 39.8578 3.79453 40.9305 4.16845L41.2397 4.27633V5.18061V6.0849H40.4817C39.0053 6.0849 37.8135 6.83732 37.2189 8.14478C36.9466 8.7435 36.9293 8.86835 36.8905 10.511L36.8494 12.2452L36.4288 12.3581C35.8526 12.5128 34.8463 13.1821 34.468 13.6623C33.9897 14.2695 33.6437 15.0299 33.5185 15.7487C33.4423 16.1862 33.4161 17.9821 33.4386 21.2229C33.4714 25.9609 33.4761 26.0559 33.7025 26.62C33.8293 26.9357 34.089 27.3985 34.2798 27.6483L34.6266 28.1026L34.1985 28.5494C33.8251 28.9391 33.6914 29.2074 33.4598 30.0329C33.4403 30.1028 33.3378 30.1599 33.2322 30.1599C33.0854 30.1599 32.988 30.0011 32.8187 29.4854C32.2735 27.8245 30.9439 26.5972 29.2063 26.1506C27.6554 25.752 25.9373 26.2078 24.6084 27.3703C24.2884 27.6503 23.9924 27.8235 23.834 27.8235C23.693 27.8235 23.4674 27.8654 23.3326 27.9166C23.0932 28.0076 23.0834 27.9906 22.913 27.1801C22.4978 25.2071 20.7649 22.7527 19.6604 22.5734C19.362 22.5249 19.2596 22.564 18.9979 22.8256C18.5042 23.3193 18.571 23.5506 19.4827 24.5041C20.5347 25.6041 21.0442 26.515 21.2602 27.6817L21.3185 27.9969L20.6892 27.8493C19.7824 27.6364 18.9317 27.7361 18.165 28.1447C17.8267 28.3251 17.4808 28.578 17.3964 28.7067C17.1976 29.0101 17.109 29.0021 16.7003 28.6433C16.2879 28.2812 15.119 27.5944 14.604 27.4115L14.2271 27.2778L14.5342 26.7017C14.703 26.3849 15.1118 25.7878 15.4425 25.3746C15.9223 24.7755 16.0443 24.5502 16.0456 24.2604C16.0488 23.6 15.2834 23.1963 14.7441 23.5741C14.6273 23.6559 14.339 23.9598 14.1034 24.2494C13.8678 24.539 13.6488 24.776 13.6168 24.7759C13.5848 24.7759 13.3837 24.5955 13.1699 24.3752C12.3359 23.5155 10.8529 23.4134 9.36212 24.113C7.97766 24.7626 7.89721 24.9963 8.57852 26.3895C8.83491 26.9139 9.03178 27.3488 9.01603 27.356C7.05458 28.2553 5.99671 29.1447 5.07577 30.6689C3.55975 33.1781 3.65544 36.6946 5.30341 39.0285L5.50454 39.3134L5.0908 39.6954C3.99503 40.707 3.99849 41.9692 5.1039 44.4321C5.75565 45.884 6.72424 47.3316 7.81117 48.4781C8.91994 49.6475 11.1151 51.119 12.6123 51.6964L13.3996 52H23.0001H32.6005L33.2738 51.7466C33.6441 51.6072 34.17 51.3718 34.4424 51.2236L34.9379 50.9539L35.3331 51.2279C35.5505 51.3785 35.9742 51.6024 36.2746 51.7255C36.8183 51.9482 36.8563 51.9493 44.3234 51.9778C49.1639 51.9961 52.0293 51.9691 52.3992 51.9016C54.1329 51.5847 55.5372 50.1864 55.8667 48.4487C55.926 48.1358 55.9691 45.9697 55.9691 43.2955C55.9691 37.9705 55.9409 37.7207 55.217 36.6413L54.7812 35.9916L55.1493 35.6386C55.9845 34.8378 56.1723 33.6578 55.6337 32.5948L55.3489 32.0329L55.6337 31.5282C55.8717 31.1061 55.9178 30.9067 55.9153 30.3122C55.9118 29.4972 55.7018 29.0025 55.1236 28.4473L54.7684 28.1061L55.1062 27.6635C55.292 27.4201 55.5505 26.9566 55.6806 26.6333C55.9151 26.0509 55.9174 26.0033 55.951 21.119C55.9754 17.5811 55.9509 16.0349 55.8643 15.6336C55.5717 14.279 54.6966 13.1453 53.5101 12.584C53.1585 12.4176 52.7908 12.2815 52.6931 12.2815C52.5318 12.2814 52.5153 12.1421 52.5153 10.779C52.5153 9.0448 52.3698 8.31168 51.8833 7.5936C51.2126 6.60398 50.2089 6.0912 48.9345 6.08734L48.1473 6.0849L48.1533 5.19605L48.1592 4.30721L48.6839 4.05011C49.6931 3.55561 50.1332 2.42449 49.7287 1.36519C49.5208 0.820812 48.9087 0.244842 48.3831 0.0988686C47.894 -0.0369467 41.4271 -0.0310549 40.9528 0.105573ZM48.0254 1.83877C48.2434 2.05676 48.1699 2.42439 47.8867 2.53206C47.6056 2.63893 41.9538 2.67001 41.5687 2.56681C41.2967 2.49387 41.1636 2.08327 41.3424 1.86792C41.4484 1.74003 41.9617 1.71687 44.6856 1.71687C47.0529 1.71687 47.9357 1.74907 48.0254 1.83877ZM46.4204 5.22145V6.0849H44.6935H42.9666V5.22145V4.358H44.6935H46.4204V5.22145ZM49.639 7.91957C50.0643 8.07997 50.5738 8.61785 50.6872 9.02631C50.7423 9.22429 50.7875 9.99205 50.7878 10.7323L50.7884 12.0782H44.6935H38.5986L38.5992 10.7831C38.5998 9.32283 38.6909 8.87333 39.08 8.41103C39.5807 7.81596 39.5415 7.82012 44.6615 7.81576C47.7322 7.81322 49.4518 7.84907 49.639 7.91957ZM52.8089 14.1742C53.4633 14.5003 53.9858 15.1707 54.1442 15.8876C54.22 16.2306 54.2459 17.9289 54.2239 21.119C54.1921 25.7453 54.1868 25.8511 53.9702 26.2558C53.6802 26.7977 53.063 27.3465 52.5056 27.5584C52.0993 27.7128 51.3671 27.7258 44.5411 27.6997C37.0407 27.6712 37.0231 27.6706 36.6108 27.4498C35.9983 27.122 35.4829 26.4969 35.2965 25.8554C35.1575 25.3772 35.1395 24.6482 35.1655 20.5436L35.1956 15.786L35.4913 15.2523C35.6539 14.9587 35.9393 14.6024 36.1254 14.4604C36.87 13.8925 36.5188 13.9149 44.699 13.9107L52.2722 13.9067L52.8089 14.1742ZM37.2003 15.8364C36.9383 16.0804 36.8278 16.5959 36.9 17.2365C36.9955 18.0839 37.8052 18.4679 38.3492 17.9238C38.5701 17.7029 38.5986 17.5866 38.5986 16.9034C38.5986 16.2201 38.5701 16.1038 38.3492 15.883C38.0372 15.5709 37.5082 15.5495 37.2003 15.8364ZM37.4186 20.0466C37.2136 20.1353 37.0615 20.2999 36.9869 20.514C36.821 20.9901 36.8333 25.1512 37.0016 25.484C37.2794 26.033 37.9542 26.1314 38.3979 25.6877C38.5869 25.4988 38.5986 25.3408 38.5986 22.9652C38.5986 20.4797 38.5953 20.4404 38.37 20.2342C38.0487 19.9401 37.785 19.8881 37.4186 20.0466ZM11.9545 25.6141C12.2322 25.9179 12.492 26.4431 12.492 26.701C12.492 26.8931 12.4306 26.9092 11.7011 26.9092H10.9101L10.5329 26.3364C10.3253 26.0213 10.1556 25.728 10.1556 25.6846C10.1556 25.5477 10.6942 25.4018 11.2299 25.3935C11.6412 25.3871 11.7877 25.4317 11.9545 25.6141ZM29.5297 28.1318C30.5513 28.6348 31.1058 29.4419 31.3035 30.7144C31.4657 31.7571 31.6507 31.9298 32.5776 31.9043C32.9669 31.8936 33.4589 31.9516 33.7231 32.0393C34.9397 32.4434 35.6767 33.7096 35.4401 34.9894C35.3157 35.6621 35.4295 35.9677 35.928 36.3001C36.7381 36.8403 37.1085 37.9402 36.7279 38.6761L36.5617 38.9975H33.5608H30.5599L30.6292 38.7789C30.7647 38.3523 30.8268 37.1067 30.7527 36.3056C30.589 34.5366 29.8482 32.9171 28.5219 31.4296C28.2412 31.1148 28.0006 30.7096 27.8891 30.3639C27.64 29.5919 27.275 29.0026 26.7874 28.5852C26.5599 28.3904 26.4034 28.2011 26.44 28.1647C26.4765 28.1282 26.7472 28.0122 27.0416 27.907C27.7928 27.6385 28.6927 27.7197 29.5297 28.1318ZM11.8732 29.0678C11.8273 29.3052 11.7878 29.7645 11.7854 30.0882C11.7816 30.5813 11.8214 30.7175 12.0303 30.9263C12.3653 31.2614 12.8827 31.2628 13.1957 30.9295C13.3749 30.7388 13.4482 30.4942 13.521 29.8431C13.5727 29.381 13.6362 28.9818 13.662 28.956C13.7697 28.8483 15.2255 29.6766 15.7398 30.138L16.2955 30.6368L15.6798 31.2069C13.8013 32.946 12.8994 35.5686 13.2366 38.3118L13.3208 38.9975H10.4263H7.53172L7.1133 38.5221C6.55632 37.8893 6.02464 36.7842 5.82697 35.8484C5.27476 33.2336 6.70839 30.3456 9.11883 29.217C9.97893 28.8142 10.5919 28.656 11.3356 28.6452L11.9567 28.6361L11.8732 29.0678ZM20.9233 29.732C21.2296 29.8818 21.2871 29.968 21.3385 30.3539C21.4897 31.4859 22.8715 31.4337 23.0249 30.2902C23.0782 29.8922 23.1153 29.8493 23.5519 29.6808C24.6362 29.2624 25.6537 29.5843 26.088 30.4833C26.4262 31.1833 26.5727 32.2604 26.4215 32.9357C26.2861 33.5407 25.982 34.0651 25.6345 34.2927C25.4324 34.425 25.3987 34.4023 25.0956 33.93C24.3741 32.8058 23.259 32.0927 22.2196 32.0909C20.9125 32.0887 19.8599 32.8302 18.9249 34.412C18.9131 34.4321 18.7665 34.351 18.5992 34.2319C17.9529 33.7717 17.6834 32.2243 18.0374 31.0065C18.2172 30.3881 18.6774 29.7966 19.1437 29.5845C19.5235 29.4117 20.4207 29.4861 20.9233 29.732ZM53.7343 29.5802C54.2715 29.852 54.3637 30.5536 53.917 30.9697C53.6984 31.1734 53.5965 31.1757 44.6921 31.1757H35.6881L35.4747 30.9471C35.0412 30.4826 35.1248 29.8474 35.6547 29.5792C36.0237 29.3925 53.365 29.3935 53.7343 29.5802ZM53.7343 33.034C54.2715 33.3057 54.3637 34.0074 53.917 34.4235C53.6987 34.6269 53.5929 34.6295 45.4916 34.6295H37.2872L37.2275 34.2485C37.1251 33.594 37.0818 33.3671 37.0146 33.1311L36.9496 32.9026L45.2149 32.9041C51.6739 32.9052 53.5358 32.9337 53.7343 33.034ZM16.2845 33.6061C16.3172 33.7697 16.4475 34.1239 16.574 34.3934C17.1954 35.7174 19.2538 36.8069 19.9045 36.1561C20.0146 36.046 20.2445 35.679 20.4154 35.3405C20.979 34.2238 21.7536 33.6717 22.4953 33.8578C22.9069 33.9612 23.4413 34.5062 23.8362 35.2256C24.3443 36.1512 24.5464 36.3564 24.9497 36.3564C25.9544 36.3564 27.1976 35.471 27.7402 34.3689C27.9171 34.0094 28.0778 33.7152 28.0973 33.7152C28.2039 33.7152 28.7685 35.0235 28.8969 35.5681C29.0776 36.3344 29.0943 37.7734 28.9308 38.4819L28.8118 38.9975H21.9826H15.1533L15.0183 38.4642C14.7994 37.6 14.865 36.1372 15.1644 35.208C15.4042 34.4637 16.0081 33.3089 16.1577 33.3089C16.1947 33.3089 16.2518 33.4427 16.2845 33.6061ZM52.6976 36.6501C53.0007 36.7871 53.3893 37.0731 53.5886 37.3059C54.2254 38.0499 54.2422 38.2055 54.2422 43.3802C54.2422 47.81 54.2324 48.0569 54.0353 48.5837C53.7778 49.2719 53.1479 49.8768 52.4461 50.11C51.985 50.2631 51.2224 50.2768 44.5307 50.2509C38.0299 50.2258 37.0906 50.2028 36.8384 50.0629L36.5512 49.9037L37.1272 49.4592C38.4289 48.455 40.1367 46.2916 40.8198 44.7816C41.2457 43.8401 41.719 42.4576 41.7997 41.919C42.0275 40.4003 40.704 38.9975 39.0435 38.9975H38.5088L38.5678 38.2943C38.6202 37.6689 38.539 37.0521 38.334 36.5178C38.2736 36.3604 38.764 36.3505 45.2144 36.3778L52.1598 36.4072L52.6976 36.6501ZM39.5517 40.8214C39.6921 40.8748 39.8861 41.0394 39.9829 41.1872C40.1873 41.4991 40.1281 41.8145 39.6151 43.1446C38.4535 46.1569 36.0729 48.6457 33.1198 49.935L32.3513 50.2707L23.0255 50.2719L13.6998 50.2731L12.9773 49.9656C10.6954 48.9946 8.71667 47.2812 7.41561 45.1497C6.57867 43.7785 5.88324 41.8763 6.02017 41.333C6.05532 41.1938 6.21155 41.0011 6.36748 40.9049C6.63271 40.741 7.7044 40.7297 22.9737 40.7271C33.1083 40.7254 39.3931 40.7612 39.5517 40.8214ZM8.78422 42.574C8.26331 42.8726 8.16457 43.517 8.57649 43.9288C8.79733 44.1497 8.91364 44.1782 9.59688 44.1782C10.2801 44.1782 10.3964 44.1497 10.6173 43.9288C11.0365 43.5097 10.9274 42.8553 10.3908 42.5694C10.1074 42.4185 9.05006 42.4215 8.78422 42.574ZM13.0774 42.6096C12.5943 42.873 12.5337 43.5658 12.9604 43.9496L13.2144 44.1782H25.2284H37.2425L37.4838 43.9215C37.8014 43.5833 37.8083 43.0379 37.4986 42.7284L37.2724 42.5021L25.3139 42.48C14.8762 42.4608 13.3201 42.4773 13.0774 42.6096Z" fill="white"/>
</svg>
