<svg width="60" height="52" viewBox="0 0 60 52" fill="none" xmlns="http://www.w3.org/2000/svg">
<path fill-rule="evenodd" clip-rule="evenodd" d="M27.5398 0.0645055C19.4231 0.897036 12.2661 5.3393 7.93232 12.2345C2.9816 20.1114 2.68286 30.3198 7.16471 38.4705C10.3585 44.2788 15.5761 48.6254 21.883 50.7317C24.6472 51.6549 26.8651 52 30.0327 52C32.9943 52 34.937 51.7301 37.4571 50.9683C45.6517 48.4918 52.1004 42.2292 54.7583 34.1664C55.6839 31.3585 56.0263 29.1698 56.0268 26.0568C56.0273 23.4217 55.8535 21.9552 55.2663 19.6399C54.7672 17.6721 54.3162 16.4525 53.3874 14.5589C52.1323 12.0003 50.7231 9.9979 48.7163 7.92125C44.6588 3.72247 39.5893 1.12109 33.6958 0.213673C32.4201 0.0171911 28.8453 -0.0693994 27.5398 0.0645055ZM33.4858 1.93928C37.6493 2.54846 41.8069 4.33807 45.1363 6.9542C46.143 7.74522 48.495 10.127 49.2297 11.0994C50.8 13.1778 52.2258 15.7859 52.9639 17.9305C53.9181 20.7029 54.2931 22.9818 54.2925 26.0059C54.292 28.475 54.1396 29.7581 53.5848 31.9634C51.8609 38.8153 47.1116 44.6762 40.7675 47.7809C38.3368 48.9703 36.0976 49.6726 33.4414 50.0787C31.7504 50.3372 28.3287 50.3383 26.6241 50.0811C21.228 49.2664 16.3611 46.781 12.6294 42.9337C10.6937 40.9383 9.40517 39.106 8.20227 36.639C7.05522 34.2862 6.32953 31.9524 5.95447 29.4095C5.70681 27.7309 5.70681 24.281 5.95447 22.6024C6.15859 21.2183 6.66704 19.1617 7.13794 17.815C7.87422 15.7093 9.49583 12.7925 10.981 10.9024C11.772 9.89574 14.1538 7.54365 15.1262 6.809C18.6926 4.11442 22.9468 2.35168 26.9802 1.89705C27.5119 1.83722 28.1071 1.76945 28.303 1.74666C29.0309 1.6617 32.4599 1.78919 33.4858 1.93928ZM23.3105 3.89107C22.1738 4.95428 21.1348 6.73818 20.815 8.17532C20.4197 9.95241 21.0599 12.2899 22.4095 13.9974C22.6289 14.2749 22.8084 14.5387 22.8084 14.5834C22.8084 14.6696 21.0585 16.4419 20.9748 16.4405C20.948 16.44 20.9198 16.168 20.9121 15.8361C20.8843 14.6194 20.4648 13.4251 19.6062 12.1169C18.7968 10.8838 18.0614 10.1355 17.5867 10.0621C17.2141 10.0045 17.1714 10.0295 16.5476 10.6687C15.3378 11.9087 14.4041 13.6202 14.154 15.0563C13.8646 16.7179 14.4944 18.8537 15.7708 20.5402L16.2715 21.2015L15.3328 22.1362L14.3943 23.0709L14.3301 22.3127C14.1894 20.6483 13.2959 18.7843 11.9719 17.3929C11.3545 16.7441 11.2127 16.6444 10.9078 16.6446C10.6104 16.6448 10.4603 16.7431 9.93631 17.2808C8.88044 18.3641 8.16126 19.5538 7.73563 20.9209C7.14649 22.8135 7.70033 25.2544 9.14479 27.1314L9.65853 27.7989L9.11091 28.3689C8.4948 29.01 8.41493 29.3513 8.77411 29.8079C8.93895 30.0175 9.07356 30.076 9.39062 30.076C9.73912 30.076 9.87394 30.0026 10.3463 29.556L10.8962 29.0358L11.5357 29.5166C13.3314 30.8663 15.6004 31.465 17.3537 31.0516C18.3421 30.8186 19.5652 30.2152 20.5329 29.4833C22.4789 28.0116 22.4796 27.5509 20.5376 26.0704C19.2094 25.0577 17.808 24.4845 16.4207 24.3866L15.5784 24.327L16.5386 23.3717L17.4986 22.4165L18.093 22.8778C19.9597 24.3265 22.2835 24.9057 24.1616 24.3901C25.5285 24.0149 26.8525 23.245 27.9865 22.166C28.5421 21.6372 28.6082 21.5317 28.6082 21.1738C28.6082 20.819 28.5426 20.7112 28.033 20.2293C26.4056 18.6904 24.4345 17.7697 22.7581 17.7656L22.1483 17.7641L23.1233 16.7891L24.0983 15.8141L24.8016 16.3475C26.5805 17.6967 28.9023 18.2732 30.6982 17.8117C31.9892 17.48 33.4841 16.6144 34.6004 15.5521C35.1497 15.0293 35.2221 14.9152 35.2221 14.5717C35.2221 14.2275 35.1492 14.1133 34.5861 13.5753C33.9636 12.9804 32.9809 12.2759 32.2713 11.9156C32.0754 11.8162 31.8986 11.7203 31.8783 11.7025C31.8581 11.6847 32.0066 11.4687 32.2084 11.2225C33.0132 10.2403 33.6243 8.42472 33.7509 6.63928C33.8664 5.01146 33.5916 4.76756 31.8375 4.94044C31.2647 4.99691 30.506 5.1126 30.1516 5.19746C29.3363 5.39293 28.1317 5.94696 27.4766 6.42784C27.1984 6.63216 26.9576 6.78234 26.9417 6.76169C26.9259 6.74093 26.7425 6.41472 26.5343 6.03671C26.0613 5.17803 25.0097 3.86055 24.596 3.60821C24.1147 3.31475 23.8688 3.36878 23.3105 3.89107ZM25.1071 7.02838C25.7615 8.35339 25.9053 9.38678 25.5994 10.5671C25.398 11.3447 24.8646 12.4052 24.4155 12.921L24.0697 13.3182L23.7061 12.8193C23.0174 11.8738 22.5572 10.7484 22.4507 9.74932C22.3401 8.71155 22.8578 7.18447 23.7082 6.03986L24.0803 5.53904L24.4176 5.92722C24.6031 6.1406 24.9133 6.63623 25.1071 7.02838ZM31.954 7.31573C31.799 8.60278 30.9696 10.2459 30.1594 10.8704C29.8555 11.1046 29.6956 11.1504 29.1769 11.1518C28.8361 11.1526 28.2645 11.2223 27.9066 11.3066C27.5488 11.391 27.2414 11.4454 27.2236 11.4275C27.2058 11.4097 27.2579 11.1735 27.3394 10.9027C27.4209 10.6319 27.4941 10.0846 27.5023 9.68643C27.5208 8.77291 27.706 8.4471 28.5479 7.84626C29.509 7.16045 30.7333 6.70349 31.668 6.68161L32.0313 6.67316L31.954 7.31573ZM36.8269 12.1386C36.4391 12.1976 36.1091 12.6443 36.1673 13.0315C36.1927 13.2 36.4239 13.7958 36.681 14.3554C36.9381 14.915 37.2757 15.8308 37.4311 16.3904C37.6962 17.3449 37.7136 17.5311 37.7114 19.3921C37.7093 21.2004 37.6846 21.477 37.4322 22.5136C36.9565 24.4679 37.0721 25.7728 37.8635 27.3796C39.1023 29.8946 41.5475 31.317 44.3698 31.1643C47.5949 30.9898 49.9227 29.0213 50.6501 25.8533C50.8985 24.7715 50.896 22.8188 50.6445 21.6306C49.7656 17.477 47.4671 14.7552 43.5108 13.1836C41.5106 12.3892 38.3899 11.9012 36.8269 12.1386ZM18.495 13.6178C19.3455 15.298 19.3542 16.7435 18.524 18.4007C18.349 18.7502 18.0454 19.2336 17.8492 19.4752L17.4926 19.9144L17.2008 19.577C16.7396 19.0438 16.124 17.7402 15.9376 16.9023C15.7948 16.2603 15.7859 16.0257 15.8833 15.4663C16.0506 14.5057 16.3441 13.7917 16.935 12.9083L17.4532 12.1335L17.8003 12.5322C17.9912 12.7515 18.3038 13.24 18.495 13.6178ZM30.2273 13.0368C31.0376 13.2278 31.9735 13.6684 32.6244 14.1654L33.1209 14.5446L32.7223 14.889C31.9121 15.5894 30.2279 16.2378 29.2187 16.2378C28.2513 16.2378 26.828 15.7012 25.8246 14.958L25.3303 14.592L25.672 14.2959C26.1201 13.9075 27.4953 13.2246 28.2012 13.0399C28.9301 12.8491 29.4278 12.8484 30.2273 13.0368ZM40.2154 14.0605C43.0359 14.5399 45.4293 15.798 46.9378 17.5943C48.6811 19.67 49.5436 23.1175 48.9395 25.5963C48.3714 27.9272 46.4095 29.4655 44.0049 29.4655C42.6261 29.4655 41.4613 28.9926 40.4513 28.0228C39.0624 26.6891 38.6129 25.0446 39.0845 23.0223C39.4178 21.5926 39.5039 20.8504 39.5023 19.4176C39.5005 17.5631 39.1634 15.7401 38.5053 14.0251C38.4371 13.8474 39.0336 13.8597 40.2154 14.0605ZM11.076 18.9597C11.9688 20.0623 12.546 21.5111 12.5482 22.6544C12.5502 23.7488 12.0425 25.0739 11.2334 26.0851L10.8852 26.5203L10.5345 26.0851C10.012 25.4366 9.51354 24.3293 9.32784 23.405C9.1804 22.6712 9.17867 22.5094 9.31166 21.8715C9.49349 20.9997 9.9295 20.0272 10.4569 19.3173C10.6745 19.0244 10.8704 18.784 10.8923 18.7831C10.914 18.7823 10.9968 18.8617 11.076 18.9597ZM23.6773 19.648C24.441 19.8421 25.5873 20.4012 26.1054 20.832L26.5025 21.1623L26.1063 21.5048C25.3052 22.1973 23.6132 22.8517 22.6236 22.8517C21.6549 22.8517 20.261 22.3217 19.2156 21.556L18.7264 21.1976L19.063 20.9057C19.2482 20.7451 19.7741 20.4247 20.2315 20.1936C21.5833 19.5107 22.541 19.3591 23.6773 19.648ZM45.647 21.1682C45.3722 21.4429 45.3262 21.85 45.5025 22.4454C45.5604 22.6408 45.6092 23.2501 45.6109 23.7993C45.6148 25.053 45.4523 25.4257 44.7284 25.8222C43.8202 26.3198 43.6397 26.8079 44.1684 27.3366C44.5408 27.709 44.8834 27.718 45.5742 27.3738C46.1872 27.0682 46.7656 26.464 47.041 25.8413C47.5781 24.6273 47.4379 21.8286 46.8065 21.1565C46.5008 20.8312 45.9786 20.8365 45.647 21.1682ZM29.4273 25.2112C27.602 25.4188 26.046 26.9692 25.7491 28.8762C25.4443 30.8343 26.6689 32.8799 28.5399 33.5379L29.0661 33.723L29.095 34.6807L29.1239 35.6384L28.5592 35.7648C27.2886 36.0491 25.6847 37.1625 25.0469 38.2027C24.907 38.4309 24.7567 38.6189 24.713 38.6204C24.6691 38.6219 24.271 38.4834 23.828 38.3126L23.0228 38.002L23.0778 37.524C23.1474 36.9212 22.8919 35.8025 22.5351 35.1468C22.16 34.4577 21.3075 33.6868 20.4945 33.3016C19.8466 32.9949 19.7418 32.9762 18.6875 32.9818C17.7562 32.9868 17.4841 33.0259 17.0683 33.2143C14.5159 34.3706 13.5947 37.3333 15.0717 39.6351C16.2306 41.4409 18.6847 42.1196 20.6247 41.1707C21.2349 40.8722 21.9114 40.3169 22.2211 39.8602L22.3828 39.622L23.2547 39.9532C24.0931 40.2717 24.1238 40.2946 24.0526 40.5477C23.9161 41.0327 23.9869 42.6187 24.1734 43.2528C24.7914 45.3541 26.4554 46.9978 28.4983 47.525C29.2618 47.722 30.6846 47.7455 31.4088 47.5729C31.6873 47.5067 32.2923 47.2733 32.7535 47.0546C34.3982 46.2741 35.6266 44.6401 35.994 42.7441C36.1377 42.0022 36.1279 40.8121 35.9745 40.4127C35.9451 40.336 36.2404 40.1704 36.7603 39.972L37.593 39.654L38.1967 40.2671C39.5665 41.6584 41.4535 41.996 43.2341 41.1684C44.4503 40.6031 45.361 39.3625 45.614 37.9263C45.9179 36.2006 44.8697 34.2048 43.2427 33.4114C40.6252 32.1351 37.5762 33.7063 37.0511 36.6022C36.9865 36.9578 36.9605 37.4154 36.9932 37.6195L37.0524 37.9902L36.2213 38.3252L35.3902 38.6603L35.1334 38.311C34.2062 37.0498 32.7827 36.0504 31.5063 35.7648L30.9416 35.6384L30.9705 34.6807L30.9994 33.723L31.5255 33.5379C33.4358 32.866 34.6764 30.7593 34.3144 28.8016C33.8772 26.4367 31.8362 24.9372 29.4273 25.2112ZM17.1465 26.2691C17.9218 26.4693 19.2234 27.1358 19.5936 27.5222L19.8709 27.8116L19.4827 28.1347C18.6656 28.8145 16.9823 29.4655 16.0419 29.4655C15.4357 29.4655 14.5138 29.2062 13.7016 28.8074C13.0121 28.4687 12.2262 27.9032 12.2262 27.7456C12.2262 27.6262 13.0296 27.0775 13.7121 26.7306C14.9177 26.1181 15.9987 25.9728 17.1465 26.2691ZM31.1034 27.1121C33.0501 27.9964 33.1307 30.7225 31.2405 31.7527C29.5484 32.6749 27.4728 31.4507 27.4585 29.5219C27.4508 28.4735 28.0293 27.5489 28.9644 27.115C29.5068 26.8634 30.5527 26.8619 31.1034 27.1121ZM19.9956 35.0405C20.8479 35.5045 21.3184 36.3064 21.3214 37.3004C21.3258 38.7638 20.213 39.8645 18.7295 39.8645C16.581 39.8645 15.4257 37.4665 16.7073 35.6669C16.9463 35.3311 17.6742 34.8709 18.1616 34.7476C18.6673 34.6195 19.4525 34.745 19.9956 35.0405ZM42.5844 35.0405C44.0655 35.8466 44.3534 37.9216 43.1509 39.1241C41.9865 40.2884 39.9433 40.0548 39.1284 38.6641C38.5817 37.7313 38.5809 36.8671 39.126 35.9549C39.4586 35.3982 40.2498 34.8169 40.8045 34.7219C41.3189 34.6337 42.0908 34.7718 42.5844 35.0405ZM31.241 37.4921C32.0927 37.7571 32.6755 38.1209 33.2215 38.7281C35.2064 40.9358 34.5029 44.2986 31.7906 45.5679C30.4936 46.1748 28.8119 46.0421 27.6477 45.2412C26.1588 44.2167 25.4385 42.4772 25.7982 40.7743C26.3245 38.2828 28.8631 36.7519 31.241 37.4921ZM31.21 40.998C31.0791 41.1289 30.9398 41.4263 30.9005 41.659C30.8151 42.1642 30.514 42.4356 29.9363 42.528C29.2028 42.6452 28.9256 43.5198 29.4727 43.9905C30.2222 44.6353 31.9315 43.836 32.4487 42.5989C32.5323 42.3989 32.6041 42.0116 32.6083 41.7382C32.6147 41.3171 32.5731 41.2043 32.3361 41.0005C31.9745 40.6894 31.5195 40.6884 31.21 40.998Z" fill="white"/>
</svg>
