<svg width="60" height="52" viewBox="0 0 60 52" fill="none" xmlns="http://www.w3.org/2000/svg">
<path fill-rule="evenodd" clip-rule="evenodd" d="M28.0812 0.108408C26.9104 0.445938 25.9345 1.11449 25.3505 1.9789C25.1746 2.23939 25.0183 2.46837 25.0033 2.48779C24.9883 2.5072 24.6871 2.38209 24.3338 2.20981C22.9563 1.53821 21.5297 1.54969 20.1253 2.24376C17.3475 3.61665 16.6645 7.35407 18.7704 9.65824L19.2721 10.2073L19.2458 15.4771L19.2195 20.7468L18.4064 20.8035C17.273 20.8825 16.6416 21.2447 16.0944 22.1299C15.6967 22.7732 15.6382 24.4296 15.9833 25.2696C16.183 25.7554 16.7943 26.3729 17.304 26.6038C17.5587 26.7191 18.0916 26.8209 18.6474 26.8603L19.5686 26.9257L19.7774 27.553C20.4625 29.612 22.1104 31.757 23.8672 32.8768L24.4494 33.248L24.4516 34.7979L24.4537 36.3478H20.6532C18.5628 36.3478 16.3913 36.3952 15.8276 36.453C12.3232 36.8126 9.50186 39.0801 8.37107 42.4459L8.04665 43.4115L8.01017 47.3128C7.99014 49.4585 8.00061 51.3215 8.03354 51.4526C8.17949 52.0339 6.82571 51.9996 29.6371 51.9996C52.4485 51.9996 51.0947 52.0339 51.2406 51.4526C51.2736 51.3215 51.284 49.4585 51.264 47.3128L51.2275 43.4115L50.9031 42.4459C49.7723 39.0801 46.951 36.8126 43.4466 36.453C42.8829 36.3952 40.7114 36.3478 38.621 36.3478H34.8205L34.8226 34.7979L34.8248 33.248L35.407 32.8768C37.1638 31.757 38.8117 29.612 39.4968 27.553L39.7056 26.9257L40.6268 26.8603C41.1826 26.8209 41.7155 26.7191 41.9702 26.6038C42.4799 26.3729 43.0911 25.7554 43.2909 25.2696C43.636 24.4296 43.5775 22.7732 43.1798 22.1299C42.6326 21.2447 42.0012 20.8825 40.8678 20.8035L40.0547 20.7468L40.0264 15.0553L39.9982 9.3637L40.3478 8.65226C40.9549 7.41709 41.0517 6.25276 40.6506 5.01433C39.7594 2.26327 36.6471 0.936428 34.067 2.20768C33.7363 2.3705 33.455 2.49226 33.4418 2.47813C33.4286 2.46411 33.2344 2.20748 33.0101 1.90806C32.4807 1.20129 31.616 0.560989 30.8039 0.274276C29.9957 -0.0110137 28.7572 -0.0865286 28.0812 0.108408ZM30.4108 1.98927C31.3073 2.38483 31.8894 3.10044 32.1764 4.15928C32.3271 4.71512 32.5852 4.94258 33.0653 4.94258C33.329 4.94258 33.5283 4.82407 34.0115 4.37983C34.6559 3.78739 34.8683 3.67438 35.6524 3.50617C37.1128 3.19293 38.7382 4.29435 39.0902 5.83544C39.2567 6.56488 39.1531 7.12448 38.6773 8.0644L38.277 8.85553L38.2765 11.7775L38.2761 14.6995H29.6371H20.9981V12.2161C20.9981 10.8502 20.9573 9.62521 20.9074 9.4938C20.8573 9.36248 20.5487 8.98054 20.2213 8.64504C19.4728 7.87811 19.2309 7.26768 19.2863 6.28619C19.3794 4.63899 20.6215 3.47395 22.2686 3.48869C23.1721 3.49672 23.7734 3.75182 24.493 4.43257C25.3838 5.27493 25.9811 5.10733 26.3198 3.91972C26.8317 2.12505 28.7102 1.23869 30.4108 1.98927ZM23.1324 16.4546C23.1324 16.4695 22.6522 16.9604 22.0653 17.5453L20.9981 18.6088V17.5181V16.4273H22.0653C22.6522 16.4273 23.1324 16.4396 23.1324 16.4546ZM38.2756 17.0626L38.2752 17.6978L37.0305 18.3332C35.4927 19.1183 34.7955 19.3044 33.3976 19.3027C32.1972 19.3014 30.9241 19.0419 29.8986 18.5896C29.3673 18.3554 26.9326 16.9708 26.3367 16.5641C26.1677 16.4488 27.0873 16.4273 32.2061 16.4273H38.2761L38.2756 17.0626ZM26.588 18.7387C29.6667 20.5771 31.0727 21.0431 33.4992 21.0297C35.0311 21.0212 35.9845 20.8015 37.2597 20.163C37.7349 19.9251 38.1579 19.7152 38.1999 19.6966C38.2418 19.6779 38.2761 20.9034 38.2761 22.4196C38.2761 24.5341 38.2387 25.3591 38.1155 25.9599C37.2857 30.0073 33.7575 32.8922 29.6371 32.8922C25.5167 32.8922 21.9884 30.0073 21.1587 25.9599C21.0442 25.4011 20.9981 24.6001 20.9981 23.166V21.1554L22.7955 19.356C23.784 18.3662 24.6188 17.5699 24.6504 17.5862C24.682 17.6025 25.5539 18.1212 26.588 18.7387ZM25.091 21.6897C24.6597 21.7587 24.4537 22.174 24.4537 22.9739C24.4537 23.77 24.5994 24.0961 25.0278 24.259C25.3749 24.391 25.9502 24.1369 26.0805 23.7942C26.2303 23.4003 26.2028 22.455 26.0321 22.1249C25.8736 21.8184 25.4658 21.6297 25.091 21.6897ZM33.6324 21.7644C33.2588 21.9214 33.0927 22.2959 33.0927 22.981C33.0927 23.7329 33.2277 24.0318 33.6462 24.2067C34.0608 24.3799 34.4107 24.285 34.6578 23.9322C34.9071 23.5762 34.8825 22.3267 34.6196 21.9925C34.3756 21.6824 34.0217 21.6007 33.6324 21.7644ZM19.2703 23.7959V25.0663H18.6416C18.1361 25.0663 17.9669 25.023 17.7777 24.8454C17.5705 24.6506 17.5425 24.5292 17.5425 23.8243C17.5425 23.1106 17.5694 22.9975 17.792 22.775C18.0018 22.5651 18.139 22.5254 18.6559 22.5254H19.2703V23.7959ZM29.2783 22.6684C29.0332 22.7746 28.8706 23.0066 28.4806 23.807C27.744 25.3187 27.7452 25.3548 28.5504 26.1404C29.1409 26.7166 29.267 26.7941 29.6142 26.7941C30.4312 26.7941 30.7387 25.9327 30.1416 25.3167L29.833 24.9983L30.1415 24.3462C30.5131 23.5609 30.5353 23.147 30.2215 22.8597C29.9019 22.5672 29.6365 22.5134 29.2783 22.6684ZM41.4822 22.775C41.704 22.9967 41.7317 23.1114 41.7317 23.8101C41.7317 24.8715 41.5634 25.0663 40.6468 25.0663H40.0039V23.7959V22.5254H40.6183C41.1352 22.5254 41.2724 22.5651 41.4822 22.775ZM26.6389 27.8262C26.1184 28.1109 26.0132 28.7694 26.4228 29.179C26.7386 29.4948 27.5148 29.8835 28.2651 30.1016C30.2153 30.6686 33.0927 29.7254 33.0927 28.5192C33.0927 28.2445 32.5637 27.7088 32.2924 27.7088C32.179 27.7088 31.7753 27.8704 31.3953 28.068C30.5933 28.485 29.856 28.6272 29.1035 28.5102C28.8101 28.4646 28.2589 28.2656 27.8789 28.068C27.143 27.6855 26.961 27.65 26.6389 27.8262ZM27.1243 34.3393C27.8319 34.5319 28.2174 34.5668 29.6371 34.5668C31.0568 34.5668 31.4423 34.5319 32.1499 34.3393C32.6095 34.2142 33.0113 34.1118 33.0426 34.1118C33.074 34.1118 33.0866 34.6001 33.0707 35.1968L33.0419 36.2817L31.4665 36.7206C30.6001 36.9621 29.7768 37.1597 29.6371 37.1597C29.4973 37.1597 28.6741 36.9621 27.8077 36.7206L26.2323 36.2817L26.2035 35.1968C26.1876 34.6001 26.2002 34.1118 26.2316 34.1118C26.2629 34.1118 26.6647 34.2142 27.1243 34.3393ZM19.1687 38.1843C19.1687 38.244 18.433 39.321 17.534 40.5776C16.6349 41.8341 15.8574 43.0084 15.8062 43.1869C15.755 43.3656 15.7131 44.2552 15.7131 45.164V46.8162H12.7149H9.71662V45.5112C9.71662 43.1775 10.2784 41.6857 11.6976 40.2508C12.9149 39.02 14.2076 38.3794 15.8655 38.1853C16.9643 38.0566 19.1687 38.056 19.1687 38.1843ZM26.6062 40.4386C27.5803 41.7383 28.412 42.859 28.4544 42.9289C28.5338 43.0603 27.9508 43.9705 27.787 43.9705C27.7388 43.9705 27.4737 43.8561 27.198 43.7164C26.7516 43.4902 26.4868 43.1808 24.7836 40.896C23.7315 39.4846 22.8354 38.2726 22.7923 38.2027C22.7315 38.1042 22.9519 38.0756 23.7745 38.0756H24.8351L26.6062 40.4386ZM36.4819 38.2027C36.4388 38.2726 35.5421 39.4854 34.4892 40.8978L32.5749 43.4659L30.8317 44.3387C29.1518 45.1797 29.0978 45.199 29.3458 44.8704C29.4874 44.6829 30.6913 43.0773 32.0211 41.3025L34.4391 38.0756H35.4997C36.3222 38.0756 36.5427 38.1042 36.4819 38.2027ZM44.4102 38.3686C45.6545 38.6995 46.5331 39.2185 47.5272 40.21C48.9969 41.6757 49.5576 43.1397 49.5576 45.5112V46.8162L46.3815 46.8195C44.0451 46.8218 43.1628 46.8555 43.0441 46.9465C42.7091 47.2038 42.6464 47.5105 42.6464 48.893V50.2718H30.0945H17.5425V46.9044V43.5369L19.2367 41.162C20.1685 39.8558 20.9574 38.789 20.9899 38.7912C21.0223 38.7936 22.0664 40.1582 23.3099 41.8239C25.3601 44.5701 25.6207 44.8791 26.1049 45.1384C26.3986 45.2958 26.6561 45.4386 26.6774 45.4558C26.6985 45.4731 26.4196 45.8892 26.0577 46.3804C25.6957 46.8716 25.3716 47.3524 25.3374 47.4486C25.1838 47.8817 25.7153 48.544 26.2167 48.544C26.2974 48.544 27.1001 48.1792 28.0003 47.7331L29.6371 46.9222L31.2887 47.7406C33.0559 48.6163 33.3175 48.6693 33.7477 48.239C34.121 47.8657 33.9986 47.4217 33.2421 46.4056C32.866 45.9005 32.5757 45.4731 32.5968 45.4558C32.6181 45.4386 32.8751 45.2961 33.1681 45.1392C33.653 44.8794 33.9303 44.5479 36.253 41.4514L38.8053 38.049L41.2087 38.1026C43.2047 38.1473 43.7472 38.1923 44.4102 38.3686ZM28.6053 38.7937L29.6345 39.0036L30.7118 38.7855C31.3042 38.6656 31.8046 38.5831 31.8237 38.6021C31.8791 38.6576 29.7358 41.4804 29.6383 41.4804C29.5897 41.4804 29.1728 40.9773 28.7119 40.3624C28.2509 39.7475 27.7619 39.0958 27.6253 38.9141C27.4887 38.7324 27.4218 38.5838 27.4765 38.5838C27.5313 38.5838 28.0392 38.6782 28.6053 38.7937ZM19.5198 43.6102C19.2415 43.8884 19.1882 44.4129 19.4088 44.7033C19.7961 45.2129 20.6702 45.0841 20.8784 44.4867C21.1755 43.6348 20.1541 42.9757 19.5198 43.6102ZM19.5198 47.0657C18.8408 47.7447 19.6268 48.838 20.4775 48.398C20.9966 48.1296 21.0744 47.4437 20.6311 47.0449C20.2925 46.7402 19.8368 46.7487 19.5198 47.0657ZM15.7131 49.4079V50.2718H12.7149H9.71662V49.4079V48.544H12.7149H15.7131V49.4079ZM49.5576 49.4079V50.2718H46.9659H44.3742V49.4079V48.544H46.9659H49.5576V49.4079Z" fill="white"/>
</svg>
