<svg width="24" height="20" viewBox="0 0 24 20" fill="none" xmlns="http://www.w3.org/2000/svg">
<path fill-rule="evenodd" clip-rule="evenodd" d="M7.21135 0.0676367C7.12319 0.107487 7.01141 0.185325 6.963 0.240498C6.91454 0.295725 6.27316 1.69362 5.53773 3.34695L4.20051 6.35301L2.81927 6.37961L1.43802 6.40621L1.08222 6.58078C-0.299556 7.2586 -0.37452 9.19078 0.951692 9.94501L1.22285 10.0992L2.17158 14.185C2.69338 16.4322 3.16091 18.3786 3.21049 18.5102C3.39039 18.9878 3.8492 19.5053 4.29241 19.7304C4.83843 20.0078 4.62283 20 11.7263 20C18.8297 20 18.6141 20.0078 19.1601 19.7304C19.6033 19.5053 20.0622 18.9878 20.2421 18.5102C20.2916 18.3786 20.7596 16.4304 21.2819 14.1809L22.2316 10.0911L22.3888 10.0108C22.8919 9.75411 23.2677 9.27117 23.4095 8.69912C23.6338 7.79421 23.1152 6.8452 22.1988 6.48315C22.0639 6.42989 21.6263 6.40143 20.6293 6.38116L19.2468 6.35301L17.947 3.42676C17.2321 1.81732 16.6085 0.42698 16.5612 0.337171C16.2564 -0.241535 15.3596 -0.0288229 15.3596 0.622188C15.3596 0.707475 15.9144 2.01588 16.6071 3.5644L17.8547 6.35301L14.7904 6.36674C13.1052 6.37429 10.3479 6.37429 8.66323 6.36674L5.60019 6.35301L6.84631 3.55977C7.53167 2.02349 8.09254 0.723862 8.0927 0.671721C8.09318 0.50434 7.94544 0.218685 7.81411 0.132972C7.62662 0.0106549 7.39318 -0.0146707 7.21135 0.0676367ZM21.8226 7.74356C22.1903 7.95984 22.2435 8.43453 21.9345 8.74227L21.7693 8.90683L11.7605 8.92055L1.75172 8.93428L1.57032 8.81255C1.47056 8.74556 1.35755 8.63165 1.31924 8.5594C1.17231 8.2821 1.34895 7.83316 1.65452 7.70728C1.7133 7.68307 6.2419 7.66174 11.718 7.65987C20.8429 7.65679 21.6871 7.66381 21.8226 7.74356ZM20.8963 10.3034C20.8813 10.3546 20.4821 12.0366 20.0094 14.0411C19.5366 16.0455 19.1155 17.8057 19.0735 17.9524C19.0268 18.1159 18.9292 18.2848 18.8214 18.3886C18.4513 18.7453 18.9229 18.7231 11.7263 18.7231C4.52965 18.7231 5.00123 18.7453 4.63111 18.3886C4.52382 18.2852 4.4254 18.1153 4.37855 17.9524C4.29594 17.6655 2.58957 10.3202 2.58957 10.2516C2.58957 10.2289 6.71471 10.2103 11.7566 10.2103C20.4619 10.2103 20.9222 10.215 20.8963 10.3034ZM7.14387 11.5935C7.04796 11.6517 6.93196 11.7777 6.88612 11.8736C6.80816 12.0364 6.81997 12.2107 7.06623 14.5236C7.21125 15.8854 7.35882 17.0533 7.39425 17.1192C7.48 17.2788 7.76324 17.4457 7.9487 17.4459C8.13897 17.4462 8.38309 17.3212 8.49044 17.1686C8.53911 17.0994 8.5739 16.9387 8.57395 16.7825C8.57411 16.2404 8.08767 11.9506 8.00876 11.7987C7.85333 11.4994 7.45468 11.4048 7.14387 11.5935ZM11.4858 11.5353C11.4271 11.561 11.3189 11.6464 11.2454 11.7251L11.1118 11.8682V14.4699V17.0717L11.2865 17.2456C11.4368 17.3953 11.4981 17.4196 11.7263 17.4196C11.9544 17.4196 12.0157 17.3953 12.1661 17.2456L12.3407 17.0717V14.4667V11.8617L12.1755 11.6971C11.999 11.5215 11.6856 11.4479 11.4858 11.5353ZM15.6492 11.6407C15.5587 11.6957 15.457 11.8093 15.4232 11.8933C15.3629 12.0428 14.8787 16.3837 14.8787 16.7742C14.8787 17.3127 15.3815 17.6108 15.8303 17.3384C15.9276 17.2793 16.0388 17.1537 16.0774 17.0593C16.116 16.9648 16.2612 15.8066 16.3999 14.4855C16.645 12.1524 16.6495 12.0779 16.5597 11.8894C16.3996 11.5534 15.9813 11.4392 15.6492 11.6407Z" fill="#F9E2C4"/>
</svg>
