<svg width="60" height="52" viewBox="0 0 60 52" fill="none" xmlns="http://www.w3.org/2000/svg">
<path fill-rule="evenodd" clip-rule="evenodd" d="M27.9527 0.0746792C23.4261 0.624195 18.9026 2.48186 15.1742 5.32252C14.1048 6.1373 12.0702 8.07101 11.2085 9.09162L10.7392 9.6475V6.04615V2.44493L10.4612 2.16602C10.3083 2.01259 10.0512 1.887 9.88986 1.887C9.72849 1.887 9.47142 2.01259 9.31853 2.16602L9.04051 2.44493V6.71217V10.9793H7.90805H6.77558V6.89515C6.77558 4.34442 6.73141 2.6944 6.65792 2.50039C6.34966 1.68674 5.36747 1.66765 5.08877 2.46982C5.00644 2.70701 4.96363 4.22292 4.96363 6.90469V10.9793H3.83117H2.6987V6.71217V2.44493L2.42068 2.16602C2.2678 2.01259 2.01073 1.887 1.84935 1.887C1.68797 1.887 1.4309 2.01259 1.27802 2.16602L1 2.44493V8.27934C1 14.7272 1.01676 14.9107 1.71255 16.078C1.91243 16.4132 2.29248 16.88 2.55714 17.1152L3.03844 17.543L3.03957 32.0195L3.04071 46.4961L3.30831 47.0643C4.31813 49.2079 7.27285 49.2739 8.39977 47.178C8.63158 46.7467 8.6471 46.5377 8.70077 43.103L8.7574 39.4827L9.51287 40.6027C13.4665 46.4641 19.5786 50.4239 26.5938 51.6688C28.3638 51.9829 31.9896 52.1013 33.7398 51.9022C41.5053 51.0186 48.2663 46.905 52.6166 40.4171L53.2633 39.4525L53.32 43.1447C53.383 47.2591 53.3691 47.1831 54.2013 47.9376C55.7457 49.338 58.1219 48.7445 58.8102 46.7866C58.9586 46.3642 58.9823 45.0515 58.9823 37.2343C58.9823 28.2379 58.9806 28.1694 58.7475 27.8722C58.5773 27.655 58.4085 27.5727 58.1329 27.5727C57.8574 27.5727 57.6886 27.655 57.5184 27.8722C57.2854 28.1694 57.2836 28.2392 57.2836 37.1296C57.2836 43.8327 57.2495 46.1626 57.1483 46.3856C56.8629 47.0142 55.9321 47.1985 55.3931 46.7332L55.0753 46.459L55.0187 33.7824C54.974 23.7859 54.9318 21.0746 54.819 20.9581C54.7403 20.8768 54.1288 20.529 53.4601 20.1852L52.2441 19.5601V14.1048C52.2441 9.13083 52.2625 8.58961 52.4523 7.97236C52.9072 6.4927 53.7708 5.32616 54.9992 4.53183C55.6107 4.13643 56.6932 3.70546 57.0749 3.70546C57.2762 3.70546 57.2836 4.07904 57.2836 14.2259C57.2836 20.7435 57.3251 24.824 57.3925 24.9506C57.4524 25.0629 57.6511 25.217 57.8339 25.2931C58.1074 25.4067 58.2262 25.4001 58.5039 25.256C58.6897 25.1596 58.8732 24.998 58.912 24.8967C58.9506 24.7956 58.9823 19.7025 58.9823 13.5789V2.44493L58.7043 2.16602C58.3707 1.83108 57.7639 1.80085 56.5508 2.05873C54.3708 2.52221 52.2969 4.14996 51.3394 6.14901C50.9591 6.94277 50.602 8.12283 50.602 8.58552C50.602 8.77521 50.3428 8.56858 49.4412 7.65992C45.555 3.74342 40.8079 1.25429 35.3704 0.282097C34.3021 0.0910452 33.4543 0.0319454 31.4067 0.00535046C29.9742 -0.0131751 28.4199 0.0179661 27.9527 0.0746792ZM34.4669 1.87848C37.1589 2.27592 39.1005 2.88124 41.5989 4.10166C44.8408 5.68519 47.6399 7.89394 49.7984 10.5722L50.4322 11.3584L50.4888 15.8682C50.5353 19.5766 50.5745 20.4132 50.7094 20.5761C50.7995 20.685 51.4239 21.0513 52.0967 21.3899L53.32 22.0056V28.8055V35.6054L52.7632 36.7481C49.1587 44.1454 41.8941 49.2501 33.624 50.1968C31.9493 50.3886 28.4778 50.2782 26.8202 49.9804C19.2234 48.6161 12.7372 43.7712 9.29792 36.8923L8.70123 35.699L8.701 31.8631C8.70077 28.1791 8.69183 28.0184 8.47428 27.8C8.13703 27.4616 7.53094 27.4969 7.23683 27.8722C7.00377 28.1695 7.00207 28.2377 7.00207 37.2574V46.3431L6.67105 46.6753C6.20493 47.1431 5.53428 47.1431 5.06816 46.6753L4.73714 46.3431L4.72921 31.6446C4.7248 23.5604 4.68539 16.8551 4.64156 16.7437C4.59773 16.6323 4.31326 16.351 4.00953 16.1186C3.18951 15.4911 2.78556 14.6944 2.72112 13.5779L2.6696 12.6841H5.86961H9.06962L9.01809 13.5779C8.95365 14.6944 8.5497 15.4911 7.72968 16.1186C7.42596 16.351 7.14148 16.6323 7.09765 16.7437C7.05383 16.8551 7.01442 18.7017 7.01 20.8475L7.00207 24.7489L7.34465 25.0927C7.61927 25.3683 7.74848 25.4219 7.99581 25.3632C8.16557 25.3229 8.39365 25.1842 8.50259 25.055C8.68231 24.8417 8.70077 24.4812 8.70077 21.1814V17.543L9.18207 17.1152C10.1663 16.2404 10.7392 14.841 10.7392 13.3116V12.5093L11.6712 11.2613C15.275 6.43565 20.7886 3.05059 26.7505 2.00327C28.4613 1.70277 28.5157 1.69845 30.8971 1.67845C32.4498 1.66526 33.3739 1.71709 34.4669 1.87848ZM28.4666 9.56101C24.8045 10.1589 21.6049 11.8498 19.0397 14.5426C16.8828 16.8068 15.5011 19.4256 14.7962 22.5855C14.5699 23.5997 14.533 24.0765 14.533 25.9816C14.533 27.8866 14.5699 28.3634 14.7962 29.3777C15.544 32.7295 16.9414 35.2883 19.3389 37.6956C21.3004 39.6652 23.3439 40.9365 25.892 41.772C28.8111 42.7295 32.1587 42.8275 35.1439 42.0432C37.3107 41.4739 39.8554 40.2435 40.0774 39.6577C40.2169 39.2895 40.0094 38.8373 39.5937 38.6034C39.2988 38.4376 39.2408 38.4553 38.0648 39.0722C36.6716 39.8031 35.3476 40.2951 33.9548 40.5994C32.6109 40.893 29.4224 40.8959 28.0922 40.6047C22.2954 39.3359 17.9843 35.1613 16.5442 29.4223C16.2623 28.2986 16.2369 28.0154 16.2369 25.9816C16.2369 23.9477 16.2623 23.6645 16.5442 22.5408C17.2532 19.7157 18.5129 17.4758 20.5255 15.4624C22.2615 13.7257 24.225 12.5223 26.5289 11.7827C29.5236 10.8215 33.039 10.883 35.9932 11.9484C40.5713 13.5993 44.1021 17.4528 45.3332 22.1418C46.6121 27.0128 45.4888 31.8112 42.1239 35.8514C41.351 36.7794 41.274 37.088 41.7071 37.5225C42.2511 38.0686 42.6804 37.8684 43.7179 36.5851C44.6403 35.4439 45.194 34.583 45.8224 33.3122C47.5555 29.8079 47.9906 25.717 47.0332 21.9291C45.4757 15.7677 40.5967 11.0659 34.3511 9.70762C32.9711 9.40757 29.8785 9.33052 28.4666 9.56101ZM30.0097 15.9882C29.7396 16.0415 29.2815 16.2182 28.9917 16.3808C28.5071 16.6527 28.4262 16.6655 27.9818 16.5406C27.2376 16.3315 25.9673 16.4563 25.2914 16.8048C24.0378 17.4515 23.2845 18.699 23.2845 20.1284C23.2845 21.3253 23.6294 22.0245 24.8266 23.2539C25.3441 23.7852 25.882 24.3885 26.0221 24.5944C26.3155 25.026 26.3702 25.6473 26.1392 25.9267C25.9049 26.2099 24.8845 26.8742 23.5361 27.6214C21.367 28.8231 20.8451 29.4663 20.9648 30.7908C21.0641 31.8904 21.6855 33.0065 22.8481 34.1732C24.1474 35.4772 25.2261 36.0399 26.4263 36.0399C27.7796 36.0399 28.2329 35.5943 29.7744 32.7487C30.4199 31.5573 31.175 30.6414 31.5117 30.6414C31.9417 30.6414 32.5833 31.0772 33.6232 32.0757C35.1117 33.5049 35.4144 33.6532 36.8426 33.6532C37.8863 33.6532 38.0226 33.6267 38.5815 33.3161C40.1002 32.4719 40.8615 30.6754 40.4028 29.0178C40.2992 28.6433 40.3211 28.511 40.5722 27.9949C41.1557 26.7965 41.1829 25.5472 40.6519 24.3425C40.3976 23.7654 39.7483 23.0128 39.2244 22.6879C38.9088 22.4921 38.8422 22.3717 38.7772 21.8802C38.5144 19.8923 37.0661 18.4089 35.1734 18.1891C34.5968 18.1221 34.4976 18.0715 34.2933 17.7397C33.7721 16.8934 32.7775 16.2205 31.7126 15.994C31.0355 15.85 30.7154 15.8489 30.0097 15.9882ZM31.9936 17.8938C32.5424 18.1749 32.756 18.4146 33.048 19.0773C33.3778 19.8255 33.6371 19.9793 34.4193 19.8906C34.9301 19.8328 35.1609 19.8663 35.6042 20.0632C36.6769 20.5394 37.0526 21.1594 37.0625 22.4692C37.0697 23.4203 37.1597 23.605 37.724 23.8281C39.4256 24.5009 39.8535 26.3764 38.6386 27.8372C38.3123 28.2295 38.3041 28.4724 38.5979 29.0502C39.2326 30.2989 38.491 31.8291 37.179 31.9775C36.2117 32.0869 35.9572 31.9621 34.6951 30.759C32.9636 29.1086 32.1098 28.6862 31.0439 28.9528C30.3129 29.1358 29.2165 30.2429 28.5281 31.4938C27.3614 33.6134 26.9856 34.1926 26.707 34.3001C25.602 34.7268 22.9362 32.4039 22.6793 30.7905C22.6113 30.3643 22.6373 30.2829 22.9265 30.0139C23.1042 29.8486 23.5816 29.5307 23.9874 29.3074C27.3026 27.4833 28.066 26.7488 28.066 25.3833C28.066 24.4815 27.6506 23.7558 26.3645 22.4114C25.7615 21.7808 25.2024 21.1396 25.122 20.9864C24.9182 20.5975 24.9398 19.625 25.1619 19.1939C25.6503 18.2461 26.9563 17.8566 27.9464 18.3636C28.517 18.6557 28.8183 18.6111 29.4102 18.1467C29.6362 17.9693 29.9742 17.7684 30.161 17.7002C30.6181 17.5335 31.4646 17.6229 31.9936 17.8938Z" fill="white"/>
</svg>
