<svg width="60" height="52" viewBox="0 0 60 52" fill="none" xmlns="http://www.w3.org/2000/svg">
<path fill-rule="evenodd" clip-rule="evenodd" d="M28.0684 0.0302456C27.8728 0.0530143 27.2781 0.121219 26.747 0.181901C18.7424 1.096 11.328 6.10451 7.2426 13.3573C3.70512 19.6372 3.01891 27.4858 5.39641 34.4713C7.18446 39.7248 11.0007 44.6403 15.6695 47.7038C16.8413 48.4728 17.0571 48.5408 17.4194 48.2558C18.0783 47.7376 17.8876 47.3346 16.5742 46.4685C14.5565 45.1381 12.2501 43.0572 10.8345 41.29C8.70376 38.6302 6.95342 35.0262 6.16932 31.6844C4.71528 25.4874 5.73001 18.8278 8.93602 13.5266C12.0707 8.34336 16.6547 4.65138 22.2821 2.77753C27.6194 1.00036 33.013 1.07161 38.3855 2.99008C43.4967 4.81533 48.143 8.66924 51.044 13.4898C53.2348 17.1302 54.4957 21.6973 54.4957 25.9923C54.4957 30.2842 53.2341 34.8511 51.0407 38.4992C48.9824 41.9226 45.9301 44.975 42.5066 47.0333C38.5555 49.409 33.7174 50.6418 29.0849 50.4535C26.3969 50.3442 23.7539 49.8249 21.5031 48.9637C20.8933 48.7304 20.2574 48.5408 20.09 48.5424C19.5108 48.5482 19.203 49.3486 19.6198 49.7654C20.0444 50.19 23.0801 51.1688 25.1564 51.5504C32.7743 52.9509 40.3597 51.0507 46.3139 46.2502C57.5024 37.2296 59.2682 20.8542 50.2577 9.67808C46.0992 4.52025 40.353 1.24786 33.659 0.225406C32.6457 0.070599 28.8591 -0.0615407 28.0684 0.0302456ZM35.1837 5.62911C34.184 5.78656 33.3746 6.01648 33.1762 6.19924C32.8705 6.4809 32.8793 6.9256 33.197 7.24315C33.4927 7.53894 33.5895 7.54524 34.4067 7.32223C35.3851 7.0551 37.4367 7.08326 38.538 7.37874C41.6187 8.20553 44.0901 10.6793 44.8542 13.701C44.9683 14.1524 45.0406 14.543 45.0147 14.5688C44.9888 14.5947 44.5788 14.5394 44.1035 14.4461L43.2394 14.2762L43.2454 13.6438C43.2528 12.8533 43.1316 12.6377 41.7871 11.051C40.9432 10.0551 40.6859 9.81754 40.2455 9.62817C39.8295 9.44917 39.6061 9.4138 39.1961 9.46198C38.7101 9.5191 38.6555 9.50233 38.378 9.2102C37.9465 8.75595 37.403 8.50915 36.8342 8.50915C36.2933 8.50915 33.7667 8.93901 33.3399 9.10357C32.886 9.27871 32.3593 9.81753 32.1779 10.2927C32.0468 10.6361 31.9518 10.7454 31.7846 10.7454C31.43 10.7454 30.5666 11.2259 30.3185 11.5616C29.9374 12.077 28.9833 14.8408 28.9833 15.4292C28.9833 15.9587 29.1644 16.4285 29.5174 16.8147C29.6995 17.014 29.7081 17.0748 29.5937 17.3508C29.3931 17.8353 29.4393 18.7211 29.6874 19.1413C29.9862 19.6479 31.9188 21.9264 32.0496 21.9264C32.1608 21.9264 32.0851 22.8849 31.9437 23.2673C31.8784 23.4437 31.8392 23.4345 31.3952 23.1405C28.6176 21.3007 27.1197 17.7558 27.7048 14.4072C28.0383 12.4985 28.8835 10.9475 30.4245 9.41685C30.9409 8.90394 31.3211 8.44216 31.3211 8.32812C31.3211 8.21915 31.2263 8.00946 31.1104 7.86217C30.7647 7.42265 30.3354 7.49299 29.5933 8.11049C28.9989 8.6052 27.9739 9.79873 27.6002 10.4315L27.4227 10.7319L26.6913 10.0525C25.2979 8.75788 23.7919 8.10439 22.0205 8.02562C21.1551 7.98709 20.9179 8.01291 20.4245 8.19943C19.1997 8.66233 18.3514 9.81062 18.2384 11.1588L18.1793 11.8635H17.8545C17.3065 11.8635 15.9731 12.2522 15.1843 12.6419C13.9825 13.2357 13.3588 13.9475 13.061 15.0653C12.8879 15.7148 12.889 16.0583 13.0662 16.7415C13.2348 17.3915 13.318 17.2942 11.9186 18.0844C9.91305 19.2169 9.44212 19.8823 8.96865 22.2528C8.84587 22.8674 8.59744 23.6246 8.31039 24.2593C7.27798 26.5421 7.27879 27.207 8.31629 29.475C8.60171 30.0986 8.84383 30.835 8.96804 31.4571C9.32614 33.2503 9.51683 33.6851 10.271 34.4289C10.6537 34.8063 11.2665 35.2679 11.6998 35.5053L12.4586 35.921L12.4316 36.7759C12.3466 39.4758 14.1228 41.9754 16.7349 42.8316C17.9127 43.2178 19.3539 43.2156 20.4897 42.8259C20.9337 42.6736 21.4786 42.4406 21.7009 42.3081L22.105 42.0672L22.4419 42.5085C22.7709 42.9393 23.6705 43.5862 24.8981 44.2745C25.2333 44.4625 25.9351 45.0071 26.4577 45.4846C27.07 46.0443 27.6426 46.4648 28.0684 46.6676C28.7168 46.9763 28.7527 46.9814 29.9997 46.9438C31.5109 46.8982 32.8465 46.8991 34.5738 46.947C35.7932 46.9807 35.8675 46.9708 36.4207 46.6991C36.7377 46.5434 37.4644 46.003 38.0355 45.4982C38.6374 44.9664 39.5098 44.3262 40.1106 43.9758C42.181 42.7681 42.5075 42.3125 43.0074 39.9345C43.1515 39.2487 43.4249 38.4371 43.795 37.5967C44.2931 36.4656 44.3677 36.2091 44.4098 35.4832L44.4576 34.6572L45.4499 34.3322C48.6477 33.285 51.1014 30.7234 52.1245 27.3645C52.3852 26.5084 52.4031 26.3289 52.4031 24.5692C52.4031 22.8095 52.3852 22.63 52.1245 21.774C51.2486 18.8985 49.4887 16.7888 46.6966 15.2678C46.6835 15.2606 46.6226 14.8938 46.5612 14.4527C45.9446 10.0199 42.4969 6.49005 38.0373 5.72567C37.1608 5.57544 35.814 5.5299 35.1837 5.62911ZM22.8033 9.6364C24.0656 9.89611 25.6801 10.9388 26.3771 11.9446L26.6597 12.3525L26.4441 13.0763C26.3256 13.4745 26.2016 14.0276 26.1687 14.3057C26.1357 14.5837 26.0581 14.8128 25.996 14.8148C25.9339 14.8167 25.5171 14.8844 25.0699 14.9652C24.0616 15.1474 24.1042 15.1476 24.1042 14.9603C24.1042 14.645 23.6014 13.8255 23.1558 13.4148C22.5787 12.8829 21.4475 12.3088 20.5079 12.0709L19.7843 11.8878L19.7517 11.5025C19.7338 11.2906 19.7921 10.9261 19.8814 10.6925C20.2683 9.67899 21.2629 9.31957 22.8033 9.6364ZM37.3082 10.3513C37.4473 10.6001 37.4241 10.7102 36.9616 12.003C36.4921 13.3146 36.4513 13.3882 36.1932 13.3882C36.0433 13.3882 35.7891 13.4137 35.6284 13.4449C35.3584 13.4973 35.2684 13.4201 34.4467 12.4312C33.5194 11.3152 33.3636 10.9311 33.7183 10.6366C33.9289 10.4618 36.1214 10.0434 36.7051 10.0666C37.0798 10.0815 37.1853 10.1313 37.3082 10.3513ZM39.7707 11.0757C40.0142 11.2772 41.5442 13.1108 41.6736 13.3561C41.7977 13.5913 41.6978 14.0194 41.4888 14.1487C41.4277 14.1864 40.8645 14.3253 40.2373 14.4575C39.6101 14.5895 39.0056 14.7248 38.8937 14.758C38.7347 14.8054 38.608 14.7066 38.3113 14.3042L37.9321 13.7899L38.3831 12.5471C38.8268 11.3246 39.0764 10.9487 39.4447 10.9487C39.5396 10.9487 39.6863 11.0059 39.7707 11.0757ZM32.6667 12.702C32.8865 12.9397 33.3178 13.4411 33.6252 13.8164L34.1842 14.4988L33.9839 15.0357L33.7836 15.5726L32.3991 15.8129C31.1057 16.0374 30.9978 16.0422 30.7612 15.8872C30.591 15.7757 30.5079 15.6279 30.5079 15.4363C30.5079 15.0793 31.3797 12.6894 31.5978 12.4484C31.8728 12.1445 32.2293 12.2291 32.6667 12.702ZM20.6279 13.6923C21.3609 13.9512 22.1192 14.4344 22.4055 14.825C22.6306 15.1321 22.7377 15.8502 22.6379 16.3825C22.5549 16.8248 22.0408 17.4347 21.5934 17.6216C21.0613 17.8439 20.402 17.7929 19.8064 17.4834C19.0728 17.1022 18.185 17.1031 17.3956 17.4859C16.3587 17.9887 15.2972 17.7464 14.797 16.8929C14.3036 16.051 14.3743 15.3216 15.018 14.609C15.3793 14.2092 16.2902 13.7439 17.1415 13.5246C17.9331 13.3206 19.8343 13.4119 20.6279 13.6923ZM37.0482 15.1788L37.3141 15.4447L36.4965 15.9919C36.0468 16.2929 35.641 16.5392 35.5946 16.5392C35.4677 16.5392 35.387 16.263 35.387 15.8284C35.387 15.0186 36.466 14.5965 37.0482 15.1788ZM44.4843 16.0703C44.8197 16.1629 45.5058 16.4368 46.009 16.6793C51.1052 19.1345 52.5492 25.6581 48.9871 30.1345C46.4826 33.2819 41.8085 34.2388 38.1554 32.352C37.661 32.0966 37.1475 31.8877 37.0143 31.8877C36.6725 31.8877 36.3018 32.2694 36.3018 32.6216C36.3018 33.0275 36.6326 33.321 37.634 33.8036C39.0196 34.4715 40.112 34.7475 41.6128 34.8092L42.9088 34.8624L42.9063 35.3318C42.905 35.5949 42.7983 36.0467 42.6635 36.3601C42.5313 36.6676 42.2767 37.2564 42.0978 37.6684C41.9189 38.0806 41.6603 38.9473 41.5232 39.5946C41.1101 41.5451 40.9731 41.7327 39.2495 42.7084C38.3122 43.2389 37.8187 43.6092 36.8286 44.5252C36.4754 44.8519 35.9747 45.2128 35.7159 45.3274C35.293 45.5144 35.147 45.5266 34.2742 45.4476C33.0493 45.3367 31.337 45.3374 30.1472 45.4493C28.9622 45.5607 28.6582 45.4307 27.3703 44.2622C26.8466 43.787 26.0461 43.1814 25.5915 42.9164C24.1692 42.0874 23.7939 41.8102 23.5523 41.4104L23.318 41.0227L23.7521 40.3752C24.8312 38.7661 25.0951 36.7358 24.4633 34.9052C24.3217 34.495 24.2059 34.1351 24.2059 34.1053C24.2059 34.0756 24.4769 33.8839 24.8081 33.6794C26.0721 32.8993 27.1512 31.355 27.5161 29.804C27.7095 28.9818 27.6666 27.5666 27.4243 26.7809L27.2757 26.2989L27.8152 25.8058C28.1119 25.5346 28.5145 25.2369 28.7097 25.1442C29.1271 24.9462 30.0552 24.9248 31.1516 25.0879L31.9051 25.1999L31.9714 25.8477C32.1796 27.8797 33.6711 30.9729 34.4427 30.9729C34.5556 30.9729 34.7685 30.8781 34.9158 30.7622C35.2754 30.4794 35.2654 30.0511 34.8851 29.4572C34.4354 28.7546 33.8898 27.5468 33.6871 26.8054C33.5491 26.3007 33.5065 25.7609 33.5065 24.5184C33.5065 23.0969 33.5365 22.7967 33.7444 22.1347C34.7364 18.9754 37.1712 16.7083 40.3676 15.9674C41.1487 15.7864 43.6845 15.8498 44.4843 16.0703ZM26.0799 16.9204C26.1688 17.6865 26.5171 19.103 26.7507 19.6479C26.963 20.1432 26.9142 20.1977 26.2559 20.1995C25.6119 20.2012 24.9014 20.6131 24.3963 21.2774C23.7734 22.097 23.3972 22.333 22.7137 22.333C22.0363 22.333 21.5828 22.1508 21.2367 21.7395C20.8691 21.3025 20.7132 20.7727 20.7893 20.2178C20.8766 19.5812 21.0711 19.3222 21.5263 19.2369C22.4978 19.0546 23.5106 18.2324 23.9197 17.2938C24.1495 16.7666 24.1696 16.7499 24.7649 16.5969C25.1004 16.5107 25.4892 16.423 25.6289 16.4019C25.7687 16.3808 25.9121 16.3573 25.9476 16.3497C25.9831 16.3421 26.0426 16.5989 26.0799 16.9204ZM34.2683 17.3516C34.5073 17.6872 34.5074 17.6867 33.9363 18.4132C33.7192 18.6892 33.3582 19.2495 33.1338 19.6584C32.9093 20.0672 32.7101 20.4017 32.691 20.4017C32.6334 20.4017 31.1602 18.6372 31.0494 18.4354C30.9046 18.1716 31.0035 17.7729 31.2458 17.6432C31.4018 17.5597 32.8174 17.2576 33.9824 17.0592C34.0205 17.0527 34.1492 17.1843 34.2683 17.3516ZM39.9102 17.5201C39.1905 17.8967 37.4439 18.9247 37.1394 19.151C36.7065 19.4726 36.3857 20.1157 36.3673 20.6991C36.3536 21.1327 36.3201 21.188 35.899 21.47C35.6042 21.6676 35.3552 21.9508 35.1875 22.2794C34.9403 22.7639 34.9295 22.8594 34.9295 24.5692C34.9295 26.279 34.9403 26.3745 35.1875 26.859C35.3552 27.1876 35.6042 27.4708 35.899 27.6684C36.3204 27.9507 36.3536 28.0055 36.3674 28.4406C36.3823 28.9107 36.5896 29.4373 36.8985 29.7895C37.0813 29.9979 39.2221 31.2846 39.8924 31.589C40.4592 31.8463 41.2082 31.8402 41.7585 31.5737L42.1972 31.3614L42.6603 31.5855C43.4171 31.9519 44.0738 31.8488 45.2962 31.1716C47.533 29.9325 47.9943 29.4729 48.0267 28.4514C48.0409 28.004 48.0719 27.9521 48.4939 27.6684C48.7612 27.4886 49.0416 27.1814 49.18 26.9165C49.4001 26.4954 49.4141 26.3544 49.4141 24.5692C49.4141 22.784 49.4001 22.643 49.18 22.2219C49.0416 21.957 48.7612 21.6498 48.4939 21.47C48.0719 21.1863 48.0409 21.1344 48.0267 20.687C47.9943 19.6655 47.533 19.206 45.2962 17.9668C44.0738 17.2896 43.4171 17.1866 42.6603 17.5529L42.1972 17.777L41.7585 17.5647C41.2303 17.3089 40.3541 17.2878 39.9102 17.5201ZM14.5359 18.7657C15.3732 19.3619 16.851 19.4387 17.9228 18.9418C18.6149 18.6208 18.6208 18.6205 19.1185 18.8744L19.5119 19.0751L19.3606 19.5605C19.1512 20.2328 19.2412 21.2556 19.5701 21.943C19.7109 22.237 19.8166 22.4811 19.8051 22.4854C18.4813 22.9783 17.7906 23.3959 17.0483 24.1523C16.4792 24.7322 16.3938 25.1373 16.7632 25.5066C17.1424 25.8858 17.5112 25.7904 18.2272 25.1276C19.3337 24.1032 20.7004 23.6641 22.1476 23.8682C24.8289 24.2463 26.6637 26.9774 25.9855 29.5811C25.394 31.8519 23.5456 33.2028 21.1842 33.0899C20.4034 33.0526 20.1727 32.9957 19.4914 32.672C17.8787 31.9062 16.7857 30.2312 16.7857 28.5258C16.7857 27.8972 16.4984 27.5169 16.0234 27.5169C15.5566 27.5169 15.261 27.8984 15.261 28.5006C15.261 29.0847 15.5252 30.3528 15.7621 30.9053L15.9491 31.3415L15.5075 31.5757C14.8107 31.9455 13.8915 32.8444 13.3722 33.6641L12.8952 34.417L12.3755 34.1233C11.1349 33.4222 10.8317 32.9866 10.536 31.4811C10.2905 30.2306 10.1588 29.8267 9.60831 28.6351C9.16717 27.6804 9.11523 27.4928 9.11523 26.8562C9.11523 26.2197 9.16717 26.0321 9.60831 25.0774C10.1588 23.8858 10.2905 23.4819 10.536 22.2314C10.8424 20.6716 11.1405 20.2647 12.5434 19.4922C12.948 19.2695 13.439 18.9736 13.6347 18.8347C14.0684 18.5267 14.1875 18.5176 14.5359 18.7657ZM41.1982 19.0453C41.3625 19.194 41.3836 19.3859 41.3801 20.697L41.3761 22.1805L40.8879 22.4179L40.3997 22.6552L39.2045 21.9655C37.3983 20.9231 37.4029 20.7217 39.2568 19.6315C40.5713 18.8584 40.8865 18.7632 41.1982 19.0453ZM45.1101 19.614C47.0021 20.7075 47.0089 20.9264 45.1823 21.9656L43.9818 22.6484L43.4379 22.3732L42.8939 22.098L42.9267 20.7012C42.955 19.4986 42.9865 19.2746 43.1532 19.0907C43.2597 18.9732 43.4567 18.877 43.591 18.877C43.7253 18.877 44.4088 19.2086 45.1101 19.614ZM27.9668 21.8964C28.1066 22.1028 28.4606 22.5312 28.7536 22.8486L29.2864 23.4254L28.8723 23.4917C28.3396 23.5768 27.6339 23.9426 27.0368 24.4429L26.5643 24.8389L25.7048 24.0179L24.8451 23.197L25.1242 22.8758C25.2778 22.6992 25.4847 22.4169 25.5841 22.2485C25.6836 22.0801 25.8602 21.8973 25.9765 21.8425C26.1573 21.7571 27.0654 21.5809 27.5602 21.5353C27.6441 21.5276 27.827 21.6901 27.9668 21.8964ZM38.4906 23.3071L39.6561 23.9763V24.5692V25.1621L38.4906 25.8314C36.6267 26.9016 36.4034 26.7665 36.4034 24.5692C36.4034 22.3719 36.6267 22.2368 38.4906 23.3071ZM47.7297 22.7976C47.8615 22.9295 47.8894 23.2395 47.8894 24.5692C47.8894 26.844 47.7841 26.9109 45.9039 25.8314L44.7384 25.1621V24.5693V23.9765L45.8819 23.3126C47.0575 22.6299 47.452 22.52 47.7297 22.7976ZM42.6907 23.6976C43.3767 24.0523 43.3562 25.1459 42.6575 25.4642C42.1359 25.7019 41.5675 25.5305 41.3256 25.0627C40.8485 24.1401 41.7681 23.2205 42.6907 23.6976ZM40.8973 26.7275L41.3761 26.9579L41.3801 28.4237C41.3844 30.0175 41.3086 30.2614 40.8093 30.2614C40.6781 30.2614 39.9947 29.9298 39.2904 29.5245C37.4089 28.4417 37.4 28.2118 39.1987 27.1641C39.8136 26.8059 40.3397 26.5093 40.3676 26.505C40.3956 26.5006 40.6339 26.6007 40.8973 26.7275ZM45.205 27.1817C47.0034 28.2195 46.9946 28.4352 45.1101 29.5245C44.4088 29.9298 43.7253 30.2614 43.591 30.2614C43.4567 30.2614 43.2597 30.1652 43.1532 30.0477C42.9865 29.8639 42.955 29.6398 42.9267 28.439L42.894 27.0438L43.3842 26.7807C43.6538 26.636 43.9082 26.5137 43.9495 26.509C43.9909 26.5044 44.5558 26.8071 45.205 27.1817ZM29.5656 28.8638C29.2505 29.102 29.2123 29.4419 29.3887 30.4358C29.5718 31.4662 29.6792 31.6457 30.1722 31.7443C30.4331 31.7965 30.5441 31.7591 30.7554 31.5479C30.8988 31.4045 31.0162 31.1821 31.0162 31.0537C31.0162 30.7015 30.7264 29.2599 30.613 29.0481C30.4406 28.7257 29.8789 28.6269 29.5656 28.8638ZM18.7678 34.0211C19.8233 34.5279 20.4781 34.6615 21.6894 34.6174L22.6783 34.5813L22.8788 35.0479C24.0969 37.8809 22.3704 41.0308 19.317 41.5457C17.875 41.789 16.4128 41.2953 15.3232 40.197C13.8368 38.6991 13.5278 36.5635 14.5262 34.6906C14.8673 34.0511 15.7859 33.1297 16.3764 32.8353L16.8204 32.6139L17.3875 33.1222C17.6994 33.4018 18.3206 33.8063 18.7678 34.0211ZM32.8087 34.1314C32.4941 34.3788 32.4668 34.7692 32.6848 35.8969C32.8352 36.6748 33.0735 36.97 33.5508 36.97C33.8891 36.97 34.2688 36.5902 34.2688 36.252C34.2688 36.1158 34.2 35.6385 34.1161 35.1912C33.8975 34.028 33.426 33.6457 32.8087 34.1314ZM26.9899 34.8702C26.6875 35.1303 26.615 35.6212 26.8391 35.8913C27.0164 36.1048 28.5269 36.6651 28.9253 36.6651C29.5465 36.6651 29.8732 35.8792 29.4322 35.4459C29.2472 35.2642 27.6641 34.6322 27.3939 34.6322C27.3239 34.6322 27.142 34.7393 26.9899 34.8702ZM36.9589 36.9981C36.761 37.1683 36.6745 37.3388 36.6745 37.5584C36.6745 38.1446 37.0047 38.3139 38.3918 38.4387C39.0259 38.4957 39.1415 38.4782 39.3829 38.2883C39.5844 38.1297 39.6561 37.982 39.6561 37.7249C39.6561 37.2104 39.3907 37.0048 38.6255 36.9263C38.2698 36.8898 37.8134 36.836 37.6112 36.8067C37.3208 36.7646 37.1835 36.8049 36.9589 36.9981ZM28.3856 39.55C27.917 39.7319 27.4711 39.9664 27.3945 40.0711C27.0484 40.5445 27.3837 41.2392 27.9582 41.2392C28.4004 41.2392 29.8768 40.6432 30.0511 40.3943C30.2726 40.0781 30.2374 39.7397 29.9535 39.4558C29.6328 39.135 29.4216 39.1477 28.3856 39.55ZM33.6851 40.3784C33.4351 40.5536 32.5409 42.1316 32.5409 42.3976C32.5409 42.6778 33.0067 43.0688 33.3404 43.0688C33.6993 43.0688 33.9741 42.7731 34.5171 41.802C34.8109 41.2766 34.8787 41.0638 34.8271 40.8287C34.7088 40.29 34.1346 40.0636 33.6851 40.3784Z" fill="white"/>
</svg>
