<svg width="60" height="52" viewBox="0 0 60 52" fill="none" xmlns="http://www.w3.org/2000/svg">
<path fill-rule="evenodd" clip-rule="evenodd" d="M16.8801 0.153185C16.7303 0.234537 16.5786 0.392976 16.5429 0.505304C16.5073 0.617633 16.5313 1.41257 16.5963 2.27179C16.7862 4.78314 16.546 7.09136 15.7814 10.1027C15.1007 12.7833 14.1758 14.9993 12.0802 18.9703C11.342 20.369 10.8212 21.8629 10.512 23.4686C9.46277 28.918 10.4767 36.6438 13.3944 45.4325C13.9835 47.2072 15.0619 50.1017 15.504 51.0948C15.9488 52.0939 14.4008 51.9975 30.0001 51.9975C45.5995 51.9975 44.0515 52.0939 44.4962 51.0948C44.9365 50.1057 46.0464 47.1346 46.6062 45.4467C49.5212 36.6569 50.5366 28.9134 49.4883 23.4686C49.1791 21.8629 48.6583 20.369 47.9201 18.9703C45.8245 14.9993 44.8996 12.7833 44.2189 10.1027C43.4529 7.08588 43.2095 4.74698 43.4025 2.25818C43.4685 1.40708 43.4932 0.618141 43.4573 0.505101C43.2899 -0.0224174 43.8059 -0.00312047 29.9798 0.00124674C18.9482 0.00469989 17.1143 0.0260281 16.8801 0.153185ZM8.74939 1.8827C8.41556 2.06389 8.37463 2.21613 8.34182 3.39955L8.31643 4.31361L6.33595 4.36998C5.24669 4.40096 4.34521 4.43519 4.33272 4.44615C4.32013 4.45702 4.2402 4.60084 4.15499 4.76557C4.03199 5.00333 4 5.46382 4 6.99437C4 8.88659 4.00467 8.92884 4.24487 9.20835L4.48984 9.49333L6.42847 9.52492L8.36721 9.5564V10.5522C8.36721 11.4059 8.39727 11.5861 8.57775 11.8156C8.73985 12.0216 8.87787 12.0832 9.17819 12.0832C9.53793 12.0832 9.78442 11.9027 12.3606 9.75343C15.3781 7.23589 15.4775 7.1195 15.1173 6.52546C15.0231 6.37027 14.0112 5.46636 12.8684 4.51674C9.13513 1.4146 9.3541 1.55465 8.74939 1.8827ZM41.6346 3.72963C41.6405 5.83726 41.7445 6.88052 42.1479 8.87705C42.6576 11.4002 43.7063 14.5153 44.7394 16.5751C44.9559 17.0068 45.133 17.4016 45.133 17.4525C45.133 17.5034 44.9708 17.5754 44.7727 17.6126C44.1698 17.7257 42.9678 18.1575 40.3088 19.2163C34.8207 21.4014 33.8584 21.6264 30.0001 21.6264C26.1236 21.6264 25.2493 21.4203 19.5392 19.1603C16.7675 18.0633 15.8207 17.7239 15.2163 17.6105C15.0244 17.5745 14.8672 17.5034 14.8672 17.4525C14.8672 17.4016 15.0447 17.0068 15.2614 16.5751C16.2797 14.5478 17.3481 11.3734 17.8524 8.87705C18.2558 6.88052 18.3598 5.83726 18.3657 3.72963L18.3712 1.72386H30.0001H41.6291L41.6346 3.72963ZM49.8696 2.25696C47.4703 4.1957 45.0281 6.28617 44.883 6.52546C44.5228 7.1195 44.6222 7.23589 47.6397 9.75343C50.2159 11.9027 50.4624 12.0832 50.8221 12.0832C51.1224 12.0832 51.2604 12.0216 51.4225 11.8156C51.603 11.5861 51.6331 11.4059 51.6331 10.5522V9.5564L53.5718 9.52492L55.5105 9.49333L55.7554 9.20835C55.9956 8.92884 56.0003 8.88659 56.0003 6.99437C56.0003 5.46382 55.9683 5.00333 55.8453 4.76557C55.7601 4.60084 55.6802 4.45702 55.6676 4.44615C55.6551 4.43519 54.7536 4.40096 53.6643 4.36998L51.6839 4.31361L51.6585 3.39955C51.6254 2.20456 51.585 2.06135 51.2304 1.87793C50.7614 1.6354 50.5744 1.6875 49.8696 2.25696ZM13.0176 6.95659C13.0014 6.97142 12.3485 7.5158 11.5664 8.16641L10.1446 9.34921L10.0766 8.81377C10.0257 8.4124 9.94154 8.22054 9.74085 8.04789C9.48349 7.82648 9.40041 7.81754 7.5998 7.81754H5.72657V6.95425V6.09097H7.43801C8.45303 6.09097 9.28402 6.04405 9.48014 5.97569C9.85745 5.84417 10.0938 5.39973 10.0938 4.82173V4.45997L11.5703 5.69487C12.3823 6.37402 13.0336 6.94176 13.0176 6.95659ZM50.0942 5.65587C50.2825 6.00769 50.7549 6.09097 52.5623 6.09097H54.2737V6.95425V7.81754H52.4005C50.5999 7.81754 50.5168 7.82648 50.2594 8.04789C50.0588 8.22054 49.9746 8.4124 49.9237 8.81377L49.8557 9.34921L48.4795 8.20257C47.7227 7.57186 47.0909 7.01011 47.0755 6.95425C47.0602 6.8984 47.6794 6.32314 48.4517 5.67588L49.8557 4.49907L49.9186 4.97215C49.9531 5.23235 50.0321 5.53999 50.0942 5.65587ZM27.7104 13.2466C27.4536 13.5033 27.4263 13.6088 27.4605 14.216C27.5268 15.3997 28.7197 16.4484 30.0001 16.4484C31.3415 16.4484 32.5056 15.3674 32.5544 14.0764C32.5861 13.237 32.0474 12.8067 31.3694 13.13C31.0928 13.2619 31.0049 13.3888 30.8708 13.8499C30.6957 14.4528 30.4255 14.7238 30.0001 14.7238C29.5758 14.7238 29.3046 14.4527 29.1308 13.8545C29.0076 13.4306 28.9002 13.2636 28.6773 13.1483C28.2619 12.9335 27.9964 12.9605 27.7104 13.2466ZM15.1593 19.3994C15.6272 19.5151 17.2497 20.1047 18.7648 20.7097C24.6761 23.0701 25.866 23.3509 29.9696 23.3547C34.1576 23.3585 35.2105 23.1121 41.2229 20.7211C43.6295 19.7641 44.6272 19.4267 45.8726 19.1487C46.0115 19.1178 46.1443 19.2895 46.4437 19.8868C47.2263 21.4482 47.8289 23.5217 48.0167 25.2983L48.077 25.8687L44.853 25.927C41.4532 25.9885 40.3423 26.0949 38.2853 26.5563C36.6767 26.9171 35.6488 27.3474 33.5539 28.5369C31.3211 29.8048 30.932 29.959 29.9736 29.9559C29.0564 29.9529 28.6145 29.7783 26.5911 28.6201C24.6337 27.4997 24.4353 27.4015 23.3669 27.0249C21.2872 26.292 19.096 26.001 15.0987 25.9272L11.9279 25.8685L11.9869 25.2474C12.1471 23.5622 12.7541 21.4804 13.5428 19.9118C13.8533 19.2941 13.9885 19.1178 14.1277 19.1487C14.2272 19.171 14.6914 19.2838 15.1593 19.3994ZM19.2345 27.8646C21.8664 28.2447 23.1712 28.6708 25.1373 29.7921L26.5962 30.624L27.1848 32.0841C27.8015 33.6133 28.509 35.7065 28.9039 37.1693C29.1363 38.0302 29.1368 38.0493 29.1107 44.1517L29.0845 50.2709H23.0533H17.0221L16.8484 49.8393C14.876 44.9366 13.1055 38.7746 12.3878 34.3137C12.0189 32.0209 11.7071 28.1655 11.8586 27.7705C11.9206 27.6092 12.1594 27.6004 15.0468 27.6533C16.994 27.689 18.5692 27.7685 19.2345 27.8646ZM48.1089 29.095C48.0871 30.6342 47.9682 31.9335 47.6671 33.9193C46.973 38.5 45.2023 44.7428 43.1519 49.8393L42.9782 50.2709H36.947H30.9158L30.8896 44.1517C30.8635 38.0493 30.864 38.0302 31.0964 37.1693C31.4913 35.7065 32.1988 33.6133 32.8155 32.0841L33.4042 30.6239L34.5206 29.9781C36.6296 28.7581 37.5219 28.4262 39.7502 28.0329C41.5029 27.7235 42.6873 27.6473 45.5393 27.6608L48.1292 27.6731L48.1089 29.095ZM30.8146 32.4273C30.6604 32.8289 30.4279 33.4888 30.298 33.8939C30.168 34.2989 30.034 34.6302 30.0001 34.6302C29.9663 34.6302 29.8323 34.2989 29.7023 33.8939C29.5724 33.4888 29.3399 32.8289 29.1857 32.4273L28.9054 31.6971H30.0001H31.0949L30.8146 32.4273Z" fill="white"/>
</svg>
