<svg width="61" height="52" viewBox="0 0 61 52" fill="none" xmlns="http://www.w3.org/2000/svg">
<path fill-rule="evenodd" clip-rule="evenodd" d="M25.0338 0.137143C24.7108 0.215392 24.1849 0.404915 23.8652 0.558364C23.0856 0.932432 21.9357 2.08197 21.5807 2.84251L21.3106 3.42063L18.6389 3.45224C16.1215 3.48201 15.9432 3.49665 15.5537 3.70517C15.1015 3.94724 14.4508 4.61194 14.3474 4.93743C14.285 5.13407 14.1861 5.14484 12.1268 5.17818C9.67184 5.21811 9.36332 5.29585 8.68855 6.04511C7.92883 6.88846 7.98492 4.99861 8.01429 28.7912L8.04061 50.1281L8.26032 50.5346C8.51935 51.0137 9.0176 51.5039 9.51412 51.768C9.85608 51.9499 10.491 51.9583 25.9732 51.9839C39.1924 52.0057 42.1599 51.9861 42.5411 51.8744C42.924 51.7621 43.1567 51.761 43.8657 51.8676C44.9307 52.0278 48.9436 52.048 50.0284 51.8986C51.5937 51.6831 52.8984 51.2183 54.2514 50.3941C55.1556 49.8434 56.3089 48.8826 56.9493 48.1465C58.4629 46.4066 59.5392 44.0325 59.8704 41.7029C60.0447 40.4777 60.0732 35.7347 59.9125 34.7324C59.4927 32.1152 57.7638 29.6943 55.522 28.5845C54.1633 27.912 53.7152 27.8125 51.7595 27.7494C49.7713 27.6853 49.106 27.788 48.2771 28.2871C47.9728 28.4704 47.7246 28.5893 47.7255 28.5515C47.732 28.2983 48.0584 26.9921 48.2295 26.5351C48.8706 24.8215 50.1755 23.2159 51.8204 22.1165C52.8036 21.4596 53.0086 21.2346 53.0048 20.8167C53.0009 20.3663 52.8194 20.118 52.4077 20C52.1443 19.9245 51.9929 19.9594 51.5304 20.2027C49.7742 21.1265 47.8199 23.2258 46.9528 25.12C46.8052 25.4422 46.6525 25.6675 46.6132 25.6207C46.5738 25.574 46.4563 25.3299 46.3518 25.0784C46.0719 24.4045 45.3641 23.3634 44.8347 22.847L44.3703 22.394L44.368 14.7681C44.3656 6.25394 44.4048 6.73512 43.65 5.98027C42.9627 5.29301 42.6362 5.21527 40.2854 5.17868L38.1821 5.14596L37.9205 4.69944C37.7765 4.45382 37.5018 4.1332 37.3099 3.98687C36.6715 3.5 36.2185 3.43303 33.5568 3.43262L31.1087 3.43232L30.7642 2.76599C29.6983 0.7048 27.2765 -0.406227 25.0338 0.137143ZM26.984 1.81461C28.1075 2.05555 29.1138 3.00642 29.4873 4.18005C29.5789 4.46784 29.7665 4.80614 29.9043 4.93195C30.1512 5.15744 30.1932 5.16059 32.9468 5.16059C36.1676 5.16059 36.3549 5.19596 36.5478 5.83963C36.6231 6.09094 36.6524 6.86763 36.6304 8.02439C36.5974 9.76151 36.5883 9.82766 36.3499 10.0813L36.1035 10.3433H26.2085H16.3135L16.0641 10.0938C15.8156 9.84534 15.8147 9.83671 15.8147 7.7743V5.70417L16.0766 5.45774L16.3387 5.21141L19.3182 5.16059C22.7627 5.10186 22.5736 5.15948 22.9402 4.05638C23.1231 3.5065 23.2796 3.26688 23.7895 2.75654C24.3034 2.24233 24.5311 2.09407 25.0687 1.92395C25.82 1.68616 26.266 1.66065 26.984 1.81461ZM14.0871 7.73721V8.58625L13.3834 8.64519C12.3507 8.73178 11.9175 9.0027 11.6012 9.75937C11.4625 10.0914 11.4449 12.2102 11.4449 28.5843C11.4449 44.9585 11.4625 47.0773 11.6012 47.4093C11.8118 47.9131 12.0284 48.1398 12.512 48.3618C12.8991 48.5396 13.4998 48.5486 25.1901 48.5507L37.4617 48.5529L38.0619 49.1046C38.3919 49.4081 38.8489 49.7799 39.0772 49.9311C39.3056 50.0822 39.4924 50.2227 39.4924 50.2432C39.4924 50.2637 32.9267 50.2805 24.9019 50.2805H10.3114L10.0144 49.9835L9.71737 49.6864L9.71889 28.6684C9.72001 12.0136 9.74684 7.59798 9.84785 7.3983C10.0757 6.94801 10.3475 6.89131 12.2833 6.88968L14.0871 6.88816V7.73721ZM18.0866 6.98897C17.5337 7.21203 17.3757 7.9502 17.7917 8.36624C18.0116 8.58625 18.1301 8.61572 18.7942 8.61572C19.7414 8.61572 20.0846 8.40354 20.0795 7.82074C20.0757 7.38052 19.9166 7.13906 19.5343 6.99374C19.2038 6.86814 18.3927 6.8654 18.0866 6.98897ZM22.4293 6.99893C22.0776 7.13957 21.9188 7.39322 21.9152 7.82074C21.9128 8.10569 21.9756 8.2445 22.1797 8.40506C22.4436 8.61278 22.5317 8.61572 28.4117 8.61572H34.3759L34.5969 8.38057C34.8327 8.12957 34.89 7.61933 34.7184 7.29861C34.6637 7.19638 34.474 7.06224 34.2967 7.00045C33.8835 6.85635 22.7893 6.85493 22.4293 6.99893ZM42.3807 7.1853L42.6427 7.43173V14.3859C42.6427 20.9684 42.6332 21.3363 42.4649 21.2687C42.3671 21.2295 41.9783 21.1236 41.6011 21.0335L40.9151 20.8695V15.4507C40.9151 11.1039 40.8877 9.96627 40.7765 9.70013C40.4994 9.03674 39.7373 8.61755 38.8065 8.61633L38.3746 8.61572V7.74564V6.87556L40.2467 6.90726C42.0673 6.93806 42.126 6.94578 42.3807 7.1853ZM14.3348 10.636C14.6121 11.172 15.0389 11.5893 15.5564 11.8303L16.0687 12.0688L26.2308 12.0676C35.8548 12.0665 36.4145 12.0565 36.7995 11.8807C37.2395 11.6797 38.0041 10.9134 38.1159 10.5614C38.1743 10.3771 38.2629 10.3433 38.6863 10.3433H39.1876V15.5566V20.7698L38.4475 20.8764C38.0404 20.9351 37.5416 21.0617 37.339 21.1578C36.7799 21.4232 36.6964 21.7325 36.7066 23.5033C36.7144 24.8647 36.7442 25.1153 36.985 25.8485C37.2643 26.6991 37.8432 27.6917 38.3094 28.1193C38.457 28.2549 38.5779 28.4002 38.5779 28.4423C38.5779 28.4843 38.3093 28.682 37.981 28.8814C36.2475 29.9345 34.8616 31.8061 34.2882 33.8686C34.0756 34.6332 34.062 34.8843 34.059 38.0859C34.0561 41.0409 34.0807 41.6043 34.2454 42.354C34.5148 43.5809 34.9595 44.7974 35.5363 45.8854L36.0347 46.8254H24.6036H13.1725V28.6521C13.1725 18.6567 13.203 10.4483 13.2403 10.4111C13.2775 10.3738 13.505 10.3433 13.7457 10.3433C14.1253 10.3433 14.2036 10.3822 14.3348 10.636ZM15.9671 14.9042C15.0832 15.31 14.909 15.7805 14.909 17.7617C14.909 19.7428 15.0832 20.2133 15.9671 20.6191C16.5654 20.8939 19.3343 20.8933 19.9303 20.6182C20.4006 20.4012 20.7349 20.0672 20.8889 19.6604C21.03 19.2882 21.0303 16.236 20.8892 15.8629C20.7422 15.4735 20.3037 15.0221 19.9082 14.8529C19.6758 14.7535 19.1174 14.7136 17.9774 14.7152C16.6396 14.7171 16.3062 14.7485 15.9671 14.9042ZM19.2698 17.7647V19.0888L17.9741 19.0604L16.6784 19.0319L16.65 17.7362L16.6215 16.4406H17.9457H19.2698V17.7647ZM23.0502 17.5613C22.6034 17.9775 22.6956 18.6794 23.233 18.9512C23.6308 19.1524 35.604 19.1391 36.0878 18.937C36.6236 18.7131 36.737 18.0389 36.3154 17.5838L36.1035 17.3552H29.6874C23.3826 17.3552 23.2675 17.3587 23.0502 17.5613ZM15.962 22.6808C15.5424 22.8636 15.1326 23.3728 14.9956 23.8816C14.9277 24.1335 14.8962 24.9144 14.9167 25.8332C14.9477 27.2215 14.9727 27.4 15.1846 27.7409C15.6121 28.4282 15.9867 28.5728 17.4614 28.6187C19.7132 28.6888 20.3225 28.5052 20.7687 27.622C20.9776 27.2084 20.9973 27.0282 20.9973 25.5301C20.9973 24.0149 20.9797 23.8574 20.7633 23.4484C20.6034 23.146 20.3892 22.9318 20.0868 22.7719C19.6753 22.5542 19.5265 22.5382 17.9582 22.5418C16.7873 22.5446 16.1772 22.587 15.962 22.6808ZM41.2562 22.6988C43.3858 23.2479 44.6796 24.7714 45.2247 27.3718C45.3509 27.974 45.3485 28.0272 45.1969 27.9815C44.5508 27.7864 43.9128 27.7249 42.4903 27.7208C41.0798 27.7167 40.8038 27.6887 40.407 27.5095C39.1126 26.9248 38.3809 25.4562 38.3763 23.4334L38.3746 22.6524L38.7049 22.6113C39.5202 22.5102 40.6785 22.5499 41.2562 22.6988ZM19.2474 25.5611L19.219 26.8568H17.9487H16.6784L16.65 25.5611L16.6215 24.2654H17.9487H19.2759L19.2474 25.5611ZM23.3566 25.193C23.1236 25.2602 22.9722 25.3955 22.8551 25.6411C22.6994 25.9676 22.6993 26.0183 22.854 26.3427C22.9789 26.6044 23.1176 26.7192 23.4064 26.7994C23.6507 26.8672 25.5044 26.9066 28.4665 26.9069C32.7145 26.9073 33.1734 26.891 33.4957 26.7295C33.9139 26.52 34.0897 26.1244 33.9472 25.7135C33.8909 25.551 33.7019 25.3597 33.4957 25.2564C33.1725 25.0944 32.7225 25.0795 28.4157 25.0877C25.7742 25.0927 23.5432 25.1392 23.3566 25.193ZM44.3828 29.5515C44.8721 29.6874 45.675 30.4071 45.907 30.9177C46.0295 31.1877 46.0944 31.5716 46.0962 32.0395C46.1003 33.0819 46.2394 33.4869 46.6628 33.6888C46.9869 33.8433 47.0379 33.8433 47.3621 33.6888C47.7855 33.4869 47.9246 33.0819 47.9286 32.0395C47.9305 31.5718 47.9951 31.1889 48.1172 30.9216C48.3727 30.362 49.1299 29.6911 49.6707 29.545C50.2769 29.3813 53.1031 29.4766 53.7282 29.6818C54.7289 30.0104 55.4931 30.4872 56.267 31.2657C57.1312 32.1352 57.5358 32.7835 57.9546 33.9703L58.2416 34.7832L58.2374 38.1367C58.2334 41.4276 58.2284 41.5084 57.9684 42.4632C57.37 44.6608 56.4621 46.2257 54.9597 47.6489C53.5195 49.0135 51.974 49.8006 50.0896 50.1291C48.8996 50.3366 45.1252 50.3366 43.9352 50.1291C42.0509 49.8006 40.5054 49.0135 39.0651 47.6489C37.5618 46.2248 36.6521 44.6562 36.0576 42.4632C35.8002 41.5134 35.7938 41.4127 35.7887 38.2384C35.7827 34.5925 35.818 34.3348 36.5218 32.9032C36.7979 32.3419 37.1114 31.9253 37.7118 31.3223C38.7457 30.2841 39.6122 29.8171 41.0676 29.5141C41.4939 29.4253 44.0315 29.4539 44.3828 29.5515ZM15.8117 30.5754C15.6146 30.6898 15.3402 30.9484 15.202 31.1499C14.9576 31.5065 14.9509 31.5656 14.9509 33.3602C14.9509 35.1572 14.9573 35.2137 15.2032 35.5726C15.3419 35.7753 15.6276 36.0378 15.8379 36.156C16.1952 36.3568 16.3425 36.3688 18.0753 36.3393C19.8453 36.309 19.946 36.2964 20.2725 36.0636C20.8799 35.6303 20.9926 35.2083 20.9951 33.3567C20.9971 31.866 20.9778 31.6882 20.7687 31.2738C20.618 30.9754 20.4014 30.7433 20.1336 30.5935C19.7557 30.382 19.6019 30.3661 17.9487 30.3667C16.342 30.3673 16.1358 30.3874 15.8117 30.5754ZM40.2359 31.4707C39.4256 31.8573 38.5147 32.7761 38.0962 33.6294C37.726 34.3841 37.4134 35.8033 37.4905 36.3787C37.5819 37.0596 38.1067 37.4086 38.6815 37.1705C39.0457 37.0196 39.1568 36.7681 39.2731 35.8312C39.4387 34.4982 40.0558 33.4951 41.0099 33.0084C41.7958 32.6074 42.03 31.9343 41.5478 31.4619C41.2292 31.1498 40.9041 31.1519 40.2359 31.4707ZM19.2698 33.3605V34.6308H17.9487H16.6276V33.3605V32.0903H17.9487H19.2698V33.3605ZM23.233 33.0347C22.6956 33.3066 22.6034 34.0085 23.0502 34.4247C23.265 34.6249 23.3926 34.6308 27.5011 34.6308C31.6097 34.6308 31.7372 34.6249 31.952 34.4247C32.2489 34.1482 32.3246 33.7916 32.1594 33.4472C31.9038 32.9141 31.8363 32.9062 27.5011 32.9062C24.467 32.9062 23.4251 32.9376 23.233 33.0347ZM16.2433 38.205C15.7066 38.3252 15.1547 38.8497 15.0076 39.3797C14.8704 39.8735 14.8695 42.3921 15.0062 42.8844C15.1407 43.3688 15.5615 43.8679 15.9845 44.0446C16.2197 44.1429 16.8098 44.1832 18.0127 44.1832C19.6364 44.1832 19.7277 44.1724 20.1403 43.9306C20.8733 43.501 20.9973 43.1021 20.9973 41.1748C20.9973 39.692 20.9776 39.513 20.7687 39.1042C20.4894 38.5578 20.1431 38.2929 19.5602 38.1803C18.9707 38.0664 16.7901 38.0827 16.2433 38.205ZM19.2698 41.1854V42.4557H17.9487H16.6276V41.1854V39.9151H17.9487H19.2698V41.1854ZM23.0219 41.0251C22.8429 41.2042 22.7249 41.4293 22.7249 41.5919C22.7249 41.7545 22.8429 41.9796 23.0219 42.1586L23.319 42.4557H27.5011H31.6832L31.9803 42.1586C32.3657 41.7732 32.3657 41.4106 31.9803 41.0251L31.6832 40.7281H27.5011H23.319L23.0219 41.0251Z" fill="white"/>
</svg>
