<?xml version="1.0" encoding="UTF-8" standalone="no"?>
<svg
   xmlns:dc="http://purl.org/dc/elements/1.1/"
   xmlns:cc="http://creativecommons.org/ns#"
   xmlns:rdf="http://www.w3.org/1999/02/22-rdf-syntax-ns#"
   xmlns:svg="http://www.w3.org/2000/svg"
   xmlns="http://www.w3.org/2000/svg"
   xmlns:sodipodi="http://sodipodi.sourceforge.net/DTD/sodipodi-0.dtd"
   xmlns:inkscape="http://www.inkscape.org/namespaces/inkscape"
   width="192.972"
   height="42.9519"
   viewBox="0 0 192.972 42.9519"
   version="1.1"
   id="svg226"
   sodipodi:docname="logo-cms.svg"
   style="fill:none"
   inkscape:version="0.92.5 (2060ec1f9f, 2020-04-08)">
  <metadata
     id="metadata232">
    <rdf:RDF>
      <cc:Work
         rdf:about="">
        <dc:format>image/svg+xml</dc:format>
        <dc:type
           rdf:resource="http://purl.org/dc/dcmitype/StillImage" />
        <dc:title></dc:title>
      </cc:Work>
    </rdf:RDF>
  </metadata>
  <defs
     id="defs230" />
  <sodipodi:namedview
     pagecolor="#ffffff"
     bordercolor="#666666"
     borderopacity="1"
     objecttolerance="10"
     gridtolerance="10"
     guidetolerance="10"
     inkscape:pageopacity="0"
     inkscape:pageshadow="2"
     inkscape:window-width="1920"
     inkscape:window-height="961"
     id="namedview228"
     showgrid="false"
     inkscape:zoom="6.2926829"
     inkscape:cx="96.5"
     inkscape:cy="23.0393"
     inkscape:window-x="0"
     inkscape:window-y="40"
     inkscape:window-maximized="1"
     inkscape:current-layer="svg226" />
  <path
     d="m 15.574,17.739 c 0,1.694 -0.626,3.15 -1.877,4.366 -1.398,1.365 -3.229,2.047 -5.49198,2.047 -0.933,0 -1.992,-0.213 -3.181,-0.64 -1.189,-0.427 -1.90702,-0.64 -2.15702,-0.64 -0.285,0 -0.49498,0.091 -0.63198,0.273 -0.159,0.228 -0.313,0.563 -0.46,1.006 h -0.768 L 0,16.612 h 0.835999 c 0.603001,1.819 1.455021,3.264 2.559021,4.333 1.273,1.262 2.79698,1.893 4.57098,1.893 1.251,0 2.251,-0.386 3.002,-1.16 0.716,-0.739 1.074,-1.671 1.074,-2.797 0,-1.581 -0.967,-3.047 -2.89899,-4.4 C 7.35801,13.367 5.56702,12.241 3.77002,11.104 1.81402,9.615 0.835999,7.926 0.835999,6.038 0.835999,4.31 1.44401,2.866 2.66101,1.706 3.84401,0.569 5.333,0 7.13,0 c 0.876,0 1.85403,0.182 2.934,0.546 1.069,0.387 1.757,0.58 2.064,0.58 0.25,0 0.466,-0.085 0.647,-0.256 0.171,-0.147 0.324,-0.426 0.461,-0.836 h 0.665 l 0.802,7.437 h -0.87 C 13.39,5.606 12.619,4.142 11.521,3.079 10.424,2.016 9.096,1.484 7.539,1.484 6.493,1.484 5.64301,1.772 4.98901,2.346 4.33501,2.92 4.009,3.685 4.009,4.64 c 0,1.467 0.98902,2.865 2.96802,4.196 1.864,1.183 3.72898,2.354 5.59498,3.514 2.001,1.592 3.002,3.388 3.002,5.389 z"
     id="path190"
     style="fill:#000000"
     inkscape:connector-curvature="0" />
  <path
     d="m 43.386,6.806 c 0,2.263 -0.882,3.986 -2.644,5.168 -1.684,1.125 -3.991,1.688 -6.925,1.688 -0.16,0 -0.302,0 -0.427,0 -0.535,0 -1.148,-0.034 -1.842,-0.103 v 7.164 c 0,0.693 0.21,1.217 0.631,1.569 0.534,0.433 1.415,0.648 2.644,0.648 v 0.699 H 24.947 V 22.94 c 1.114,0 1.904,-0.199 2.371,-0.597 0.443,-0.398 0.665,-0.944 0.665,-1.637 V 3.513 c 0,-0.67 -0.21,-1.194 -0.631,-1.569 C 26.84,1.5 26.039,1.278 24.947,1.278 V 0.579 h 9.876 c 2.422,0 4.418,0.512 5.987,1.535 1.718,1.127 2.576,2.691 2.576,4.692 z m -3.872,0.102 c 0,-1.865 -0.688,-3.229 -2.063,-4.094 -1.047,-0.637 -2.445,-0.955 -4.196,-0.955 -0.068,0 -0.131,0 -0.188,0 -0.717,0 -1.143,0.063 -1.279,0.188 -0.159,0.171 -0.238,0.66 -0.238,1.467 v 8.597 c 0.204,0.023 0.517,0.034 0.938,0.034 0.421,0.023 0.785,0.045 1.092,0.068 1.842,0 3.252,-0.37 4.23,-1.109 1.136,-0.886 1.704,-2.285 1.704,-4.196 z"
     id="path192"
     style="fill:#000000"
     inkscape:connector-curvature="0" />
  <path
     d="m 75.8041,23.641 h -8.836 v -0.699 c 0.864,0 1.467,-0.091 1.809,-0.273 0.353,-0.17 0.528,-0.478 0.528,-0.921 0,-0.273 -0.034,-0.552 -0.103,-0.836 -0.091,-0.25 -0.29,-0.75 -0.597,-1.501 l -1.364,-3.258 h -9.04 l -1.364,3.292 c -0.217,0.489 -0.358,0.864 -0.427,1.125 -0.091,0.25 -0.137,0.518 -0.137,0.802 0,0.58 0.211,0.989 0.631,1.228 0.398,0.228 0.979,0.341 1.74,0.341 v 0.699 h -6.908 v -0.699 c 0.842,0 1.529,-0.324 2.064,-0.972 0.341,-0.421 0.756,-1.205 1.245,-2.354 l 8.323,-19.41 h 0.768 l 8.903,20.434 c 0.353,0.819 0.665,1.365 0.938,1.637 0.443,0.444 1.052,0.666 1.825,0.666 v 0.699 z m -9.16,-8.972 -3.905,-9.5 -3.906,9.5 z"
     id="path194"
     style="fill:#000000"
     inkscape:connector-curvature="0" />
  <path
     d="m 104.042,6.516 h -0.853 C 102.518,4.31 101.858,2.997 101.21,2.576 100.527,2.19 98.708,1.996 95.752,1.996 v 18.729 c 0,0.693 0.21,1.217 0.631,1.569 0.534,0.433 1.421,0.648 2.661,0.648 v 0.699 h -10.13 v -0.699 c 1.251,0 2.109,-0.199 2.575,-0.597 0.466,-0.375 0.699,-0.921 0.699,-1.637 V 1.997 c -2.956,0 -4.759,0.194 -5.406,0.58 -0.683,0.398 -1.359,1.711 -2.03,3.94 h -0.836 l 0.205,-5.936 h 19.7 z"
     id="path196"
     style="fill:#000000"
     inkscape:connector-curvature="0" />
  <path
     d="m 122.474,23.641 h -10.132 v -0.699 c 1.251,0 2.109,-0.199 2.576,-0.597 0.466,-0.375 0.699,-0.921 0.699,-1.637 V 3.515 c 0,-0.693 -0.205,-1.216 -0.614,-1.569 C 114.457,1.502 113.57,1.28 112.342,1.28 V 0.581 h 10.132 V 1.28 c -1.262,0 -2.149,0.21 -2.661,0.631 -0.421,0.353 -0.631,0.887 -0.631,1.603 v 17.193 c 0,0.693 0.21,1.217 0.631,1.569 0.535,0.444 1.422,0.666 2.661,0.666 z"
     id="path198"
     style="fill:#000000"
     inkscape:connector-curvature="0" />
  <path
     d="m 154.926,1.28 c -1.309,0.148 -2.155,0.427 -2.542,0.836 -0.489,0.512 -0.733,1.507 -0.733,2.985 v 10.371 c 0,2.934 -0.762,5.111 -2.285,6.533 -1.513,1.433 -3.725,2.149 -6.636,2.149 -2.819,0 -4.986,-0.702 -6.498,-2.106 -1.513,-1.404 -2.269,-3.505 -2.269,-6.302 V 4.216 c 0,-1.183 -0.211,-1.973 -0.631,-2.371 -0.443,-0.375 -1.245,-0.563 -2.405,-0.563 V 0.583 h 9.739 v 0.699 c -1.296,0 -2.144,0.21 -2.541,0.631 -0.398,0.421 -0.598,1.177 -0.598,2.269 v 11.803 c 0,2.149 0.489,3.781 1.467,4.895 0.955,1.126 2.479,1.688 4.571,1.688 2.126,0 3.747,-0.574 4.861,-1.723 1.092,-1.114 1.638,-2.882 1.638,-5.305 V 5.443 c 0,-1.581 -0.222,-2.678 -0.665,-3.292 -0.433,-0.58 -1.313,-0.87 -2.645,-0.87 V 0.582 h 8.171 V 1.28 Z"
     id="path200"
     style="fill:#000000"
     inkscape:connector-curvature="0" />
  <path
     d="m 192.972,23.641 h -9.722 v -0.699 c 1.148,0 1.955,-0.199 2.422,-0.597 0.443,-0.398 0.665,-0.944 0.665,-1.637 V 3.77 l -8.954,19.871 h -0.479 L 168.137,4.572 v 15.01 c 0,1.058 0.193,1.842 0.58,2.354 0.512,0.671 1.433,1.006 2.763,1.006 v 0.699 h -8.238 v -0.699 c 1.308,0 2.229,-0.335 2.764,-1.006 0.386,-0.512 0.58,-1.296 0.58,-2.354 V 3.583 c 0,-0.762 -0.183,-1.308 -0.546,-1.637 C 165.551,1.502 164.652,1.28 163.345,1.28 V 0.581 h 6.84 l 7.999,17.33 7.795,-17.33 h 6.926 V 1.28 c -1.172,0 -1.99,0.21 -2.457,0.631 -0.375,0.353 -0.563,0.887 -0.563,1.603 v 17.193 c 0,0.693 0.199,1.217 0.597,1.569 0.489,0.444 1.319,0.666 2.49,0.666 z"
     id="path202"
     style="fill:#000000"
     inkscape:connector-curvature="0" />
  <path
     d="m 66.1962,39.5899 c 0,1.061 -0.294,1.872 -0.884,2.432 -0.588,0.562 -1.437,0.842 -2.544,0.842 h -1.798 v -6.425 h 1.986 c 1.022,0 1.818,0.275 2.387,0.826 0.569,0.551 0.853,1.326 0.853,2.325 z m -1.108,0.035 c 0,-1.538 -0.72,-2.307 -2.157,-2.307 h -0.91 v 4.663 h 0.747 c 1.547,0 2.32,-0.785 2.32,-2.356 z"
     id="path216"
     style="fill:#000000"
     inkscape:connector-curvature="0" />
  <path
     d="m 80.2102,42.8639 h -3.635 v -6.425 h 3.635 v 0.888 h -2.584 v 1.749 h 2.422 v 0.879 h -2.422 v 2.017 h 2.584 z"
     id="path218"
     style="fill:#000000"
     inkscape:connector-curvature="0" />
  <path
     d="m 92.8182,42.8639 h -1.05 v -5.524 h -1.891 v -0.901 h 4.83 v 0.901 h -1.89 v 5.524 z"
     id="path220"
     style="fill:#000000"
     inkscape:connector-curvature="0" />
  <path
     d="m 110.396,39.6429 c 0,1.046 -0.262,1.859 -0.785,2.439 -0.522,0.58 -1.264,0.87 -2.221,0.87 -0.971,0 -1.715,-0.288 -2.235,-0.863 -0.52,-0.576 -0.78,-1.394 -0.78,-2.455 0,-1.061 0.262,-1.875 0.785,-2.443 0.522,-0.568 1.269,-0.853 2.238,-0.853 0.955,0 1.693,0.289 2.215,0.866 0.522,0.577 0.783,1.39 0.783,2.439 z m -4.904,0 c 0,0.791 0.159,1.391 0.479,1.799 0.319,0.409 0.792,0.613 1.42,0.613 0.623,0 1.095,-0.202 1.412,-0.606 0.318,-0.404 0.477,-1.006 0.477,-1.806 0,-0.788 -0.157,-1.386 -0.472,-1.793 -0.315,-0.407 -0.784,-0.611 -1.409,-0.611 -0.63,0 -1.104,0.204 -1.426,0.611 -0.321,0.407 -0.481,1.005 -0.481,1.793 z"
     id="path222"
     style="fill:#000000"
     inkscape:connector-curvature="0" />
  <path
     d="M 125.508,42.8639 H 124.3 l -1.609,-2.628 -1.621,2.628 h -1.125 l 2.131,-3.331 -1.994,-3.094 h 1.168 l 1.486,2.43 1.484,-2.43 h 1.135 l -2.009,3.111 z"
     id="path224"
     style="fill:#000000"
     inkscape:connector-curvature="0" />
</svg>
