<svg width="226" height="61" viewBox="0 0 226 61" fill="none" xmlns="http://www.w3.org/2000/svg">
<path d="M37.855 3.42097C37.771 3.42097 37.342 3.42997 37.12 3.59897C36.85 3.80697 36.843 4.32397 36.843 4.32797V23.819L48.855 23.803C54.475 23.803 59.048 19.234 59.048 13.618C59.048 8.00097 54.479 3.43197 48.862 3.43197L37.855 3.42097ZM35.677 39.144C35.033 39.144 34.51 38.621 34.51 37.978V3.20697C34.512 3.17797 34.558 2.20297 35.077 1.68197C35.598 1.16297 36.341 1.11197 36.585 1.09497L48.865 1.09797C55.766 1.09797 61.381 6.71497 61.381 13.618C61.381 20.521 55.765 26.137 48.862 26.137L46.646 26.153H36.843V37.977C36.843 38.62 36.319 39.144 35.677 39.144Z" fill="#F9E2C4"/>
<path d="M93.567 39.144C92.891 39.144 92.339 38.593 92.339 37.916V13.515C92.339 7.53304 87.473 2.66604 81.491 2.66604C75.509 2.66604 70.644 7.53304 70.644 13.515V37.916C70.644 38.593 70.093 39.144 69.416 39.144C68.739 39.144 68.188 38.593 68.188 37.916V13.515C68.188 6.18004 74.157 0.212036 81.491 0.212036C88.826 0.212036 94.795 6.18004 94.795 13.515V37.916C94.796 38.593 94.244 39.144 93.567 39.144Z" fill="#F9E2C4"/>
<path d="M117.758 39.157C117.098 39.157 116.561 38.62 116.561 37.96V3.41696H100.05C99.391 3.41696 98.882 2.92095 98.882 2.28795C98.882 1.66195 99.392 1.15295 100.017 1.15295H135.504C136.131 1.15295 136.641 1.66195 136.641 2.28795C136.641 2.91395 136.131 3.42295 135.504 3.42295L118.954 3.41696V37.96C118.954 38.62 118.417 39.157 117.758 39.157Z" fill="#F9E2C4"/>
<path d="M165.35 39.191C158.182 39.191 152.22 33.357 152.058 26.188L152.046 2.35096C152.113 1.63396 152.637 1.15396 153.274 1.15396C153.906 1.15396 154.429 1.62895 154.489 2.25995L154.503 25.886C154.503 31.867 159.369 36.735 165.351 36.735C171.331 36.735 176.198 31.868 176.198 25.886V2.34995C176.27 1.62995 176.792 1.15295 177.427 1.15295C178.064 1.15295 178.586 1.63296 178.643 2.26796L178.654 26.054C178.498 33.341 172.535 39.191 165.35 39.191Z" fill="#F9E2C4"/>
<path d="M204.533 39.191C204.376 39.191 204.147 39.103 204.025 38.857C203.92 38.646 192.259 15.105 188.552 7.02102L188.014 7.14102C188.104 15.599 188.105 37.769 188.105 37.993C188.105 38.636 187.584 39.159 186.94 39.159C186.298 39.159 185.775 38.636 185.775 37.993V2.31702C185.773 2.28102 185.75 1.86602 186.148 1.46202C186.415 1.19302 186.746 1.15402 186.919 1.15402L187.86 1.15302C187.929 1.15402 188.306 1.16902 188.529 1.36702C188.8 1.60702 188.86 1.68002 188.932 1.85502C190.976 6.79002 202.804 30.667 205.154 35.401L205.407 35.913L222.272 1.80102C222.283 1.77502 222.398 1.51702 222.684 1.33602C222.961 1.16302 223.221 1.15002 223.294 1.15002L224.297 1.15302C224.391 1.15302 224.781 1.17302 225.098 1.49602C225.431 1.83902 225.435 2.29202 225.435 2.31102V37.961C225.435 38.62 224.899 39.157 224.24 39.157C223.61 39.157 223.088 38.663 223.049 38.034C223.041 37.739 223.042 15.597 223.161 7.05202L222.623 6.93302C218.801 15.541 207.937 36.454 206.712 38.812C206.561 39.09 206.32 39.191 206.161 39.191H204.533Z" fill="#F9E2C4"/>
<path d="M142.725 39.157C142.065 39.157 141.529 38.62 141.529 37.96V2.34995C141.529 1.68995 142.065 1.15295 142.725 1.15295C143.386 1.15295 143.923 1.68995 143.923 2.34995V37.917C143.855 38.677 143.358 39.157 142.725 39.157Z" fill="#F9E2C4"/>
<path d="M13.846 38.999C6.226 38.999 0.0140004 34.081 0.0010004 28.038C0.0230004 27.336 0.573 26.801 1.23 26.801C1.907 26.801 2.459 27.353 2.459 28.031C2.474 33.018 7.588 36.97 13.845 36.97C20.126 36.97 25.237 32.956 25.237 28.02C25.237 22.865 21.045 19.6 13.736 19.064C13.527 19.044 13.287 19.03 12.994 19.014C9.778 18.839 0 18.307 0 10.553C0 4.735 5.968 0 13.303 0C20.55 0 26.514 4.68 26.6 10.431C26.559 11.255 26.034 11.75 25.379 11.75C24.746 11.75 24.223 11.272 24.163 10.639C24.15 5.854 19.284 2.032 13.303 2.032C7.323 2.032 2.456 5.854 2.456 10.553C2.456 15.741 8.144 16.716 13.102 16.985C13.102 16.985 13.819 17.027 13.984 17.044C22.572 17.676 27.693 21.779 27.693 28.02C27.692 34.074 21.481 38.999 13.846 38.999Z" fill="#F9E2C4"/>
<path d="M69.769 56.286H71.253V59.134C70.873 59.42 70.432 59.64 69.931 59.794C69.429 59.948 68.925 60.024 68.418 60.024C67.689 60.024 67.034 59.87 66.453 59.558C65.872 59.247 65.416 58.817 65.085 58.266C64.755 57.715 64.589 57.091 64.589 56.397C64.589 55.702 64.755 55.079 65.085 54.528C65.416 53.977 65.875 53.547 66.463 53.235C67.051 52.924 67.713 52.77 68.447 52.77C69.061 52.77 69.619 52.874 70.121 53.081C70.622 53.288 71.043 53.588 71.384 53.981L70.341 54.944C69.84 54.417 69.236 54.151 68.528 54.151C68.081 54.151 67.683 54.247 67.336 54.433C66.989 54.619 66.719 54.884 66.524 55.224C66.331 55.565 66.233 55.955 66.233 56.397C66.233 56.832 66.331 57.218 66.524 57.559C66.718 57.901 66.986 58.165 67.331 58.356C67.676 58.545 68.067 58.641 68.509 58.641C68.976 58.641 69.397 58.541 69.771 58.341V56.286H69.769Z" fill="#F9E2C4"/>
<path d="M80.581 58.357C80.916 58.167 81.178 57.9 81.368 57.56C81.559 57.22 81.654 56.832 81.654 56.398C81.654 55.964 81.559 55.576 81.368 55.236C81.178 54.894 80.916 54.63 80.581 54.439C80.248 54.249 79.873 54.152 79.46 54.152C79.046 54.152 78.672 54.249 78.338 54.439C78.004 54.629 77.74 54.894 77.552 55.236C77.361 55.576 77.266 55.964 77.266 56.398C77.266 56.832 77.361 57.22 77.552 57.56C77.74 57.9 78.004 58.166 78.338 58.357C78.672 58.546 79.046 58.642 79.46 58.642C79.873 58.642 80.248 58.546 80.581 58.357ZM77.49 59.554C76.906 59.24 76.448 58.808 76.117 58.257C75.786 57.705 75.621 57.085 75.621 56.398C75.621 55.71 75.786 55.09 76.117 54.539C76.448 53.988 76.906 53.555 77.49 53.24C78.074 52.927 78.731 52.771 79.46 52.771C80.188 52.771 80.843 52.927 81.424 53.24C82.005 53.554 82.463 53.988 82.797 54.539C83.131 55.091 83.298 55.71 83.298 56.398C83.298 57.086 83.131 57.706 82.797 58.257C82.463 58.808 82.005 59.239 81.424 59.554C80.843 59.869 80.188 60.025 79.46 60.025C78.731 60.025 78.074 59.868 77.49 59.554Z" fill="#F9E2C4"/>
<path d="M92.346 58.357C92.68 58.167 92.942 57.9 93.133 57.56C93.324 57.22 93.419 56.832 93.419 56.398C93.419 55.964 93.324 55.576 93.133 55.236C92.942 54.894 92.68 54.63 92.346 54.439C92.013 54.249 91.638 54.152 91.224 54.152C90.81 54.152 90.436 54.249 90.102 54.439C89.768 54.629 89.506 54.894 89.317 55.236C89.126 55.576 89.031 55.964 89.031 56.398C89.031 56.832 89.126 57.22 89.317 57.56C89.506 57.9 89.768 58.166 90.102 58.357C90.436 58.546 90.81 58.642 91.224 58.642C91.638 58.642 92.013 58.546 92.346 58.357ZM89.255 59.554C88.671 59.24 88.213 58.808 87.882 58.257C87.551 57.705 87.386 57.085 87.386 56.398C87.386 55.71 87.551 55.09 87.882 54.539C88.213 53.988 88.671 53.555 89.255 53.24C89.839 52.927 90.496 52.771 91.224 52.771C91.953 52.771 92.608 52.927 93.188 53.24C93.769 53.554 94.227 53.988 94.561 54.539C94.895 55.091 95.062 55.71 95.062 56.398C95.062 57.086 94.895 57.706 94.561 58.257C94.227 58.808 93.769 59.239 93.188 59.554C92.608 59.868 91.953 60.025 91.224 60.025C90.496 60.025 89.839 59.868 89.255 59.554Z" fill="#F9E2C4"/>
<path d="M102.698 58.572C103.4 58.572 103.959 58.376 104.377 57.985C104.794 57.594 105.004 57.065 105.004 56.397C105.004 55.729 104.794 55.199 104.377 54.809C103.959 54.417 103.4 54.223 102.698 54.223H101.215V58.572H102.698V58.572ZM99.592 52.89H102.779C103.541 52.89 104.214 53.036 104.799 53.326C105.383 53.617 105.837 54.027 106.161 54.555C106.485 55.083 106.647 55.698 106.647 56.399C106.647 57.1 106.485 57.714 106.161 58.243C105.837 58.77 105.383 59.181 104.799 59.472C104.214 59.763 103.541 59.907 102.779 59.907H99.592V52.89Z" fill="#F9E2C4"/>
<path d="M118.939 54.193V56.046H122.186V57.35H118.939V59.905H117.316V52.891H122.616V54.193H118.939Z" fill="#F9E2C4"/>
<path d="M131.476 58.357C131.811 58.167 132.073 57.9 132.263 57.56C132.452 57.22 132.549 56.832 132.549 56.398C132.549 55.964 132.452 55.576 132.263 55.236C132.073 54.894 131.811 54.63 131.476 54.439C131.142 54.249 130.768 54.152 130.355 54.152C129.94 54.152 129.566 54.249 129.232 54.439C128.897 54.629 128.637 54.894 128.445 55.236C128.256 55.576 128.159 55.964 128.159 56.398C128.159 56.832 128.256 57.22 128.445 57.56C128.637 57.9 128.897 58.166 129.232 58.357C129.566 58.546 129.94 58.642 130.355 58.642C130.768 58.642 131.142 58.546 131.476 58.357ZM128.387 59.554C127.802 59.24 127.344 58.808 127.013 58.257C126.682 57.705 126.518 57.085 126.518 56.398C126.518 55.71 126.682 55.09 127.013 54.539C127.344 53.988 127.802 53.555 128.387 53.24C128.97 52.927 129.628 52.771 130.356 52.771C131.085 52.771 131.738 52.927 132.319 53.24C132.9 53.554 133.358 53.988 133.693 54.539C134.026 55.091 134.194 55.71 134.194 56.398C134.194 57.086 134.026 57.706 133.693 58.257C133.358 58.808 132.9 59.239 132.319 59.554C131.738 59.869 131.085 60.025 130.356 60.025C129.628 60.025 128.97 59.868 128.387 59.554Z" fill="#F9E2C4"/>
<path d="M143.241 58.357C143.576 58.167 143.838 57.9 144.028 57.56C144.217 57.22 144.314 56.832 144.314 56.398C144.314 55.964 144.217 55.576 144.028 55.236C143.838 54.894 143.576 54.63 143.241 54.439C142.907 54.249 142.533 54.152 142.12 54.152C141.705 54.152 141.331 54.249 140.996 54.439C140.662 54.629 140.402 54.894 140.21 55.236C140.021 55.576 139.924 55.964 139.924 56.398C139.924 56.832 140.021 57.22 140.21 57.56C140.402 57.9 140.662 58.166 140.996 58.357C141.331 58.546 141.705 58.642 142.12 58.642C142.533 58.642 142.907 58.546 143.241 58.357ZM140.151 59.554C139.566 59.24 139.108 58.808 138.777 58.257C138.446 57.705 138.282 57.085 138.282 56.398C138.282 55.71 138.446 55.09 138.777 54.539C139.108 53.988 139.566 53.555 140.151 53.24C140.734 52.927 141.392 52.771 142.12 52.771C142.849 52.771 143.502 52.927 144.083 53.24C144.664 53.554 145.122 53.988 145.457 54.539C145.789 55.091 145.958 55.71 145.958 56.398C145.958 57.086 145.789 57.706 145.457 58.257C145.122 58.808 144.664 59.239 144.083 59.554C143.502 59.869 142.849 60.025 142.12 60.025C141.392 60.025 140.734 59.868 140.151 59.554Z" fill="#F9E2C4"/>
<path d="M153.593 58.572C154.296 58.572 154.854 58.376 155.273 57.985C155.69 57.594 155.9 57.065 155.9 56.397C155.9 55.729 155.69 55.199 155.273 54.809C154.854 54.417 154.296 54.223 153.593 54.223H152.111V58.572H153.593V58.572ZM150.487 52.89H153.673C154.436 52.89 155.109 53.036 155.694 53.326C156.277 53.617 156.733 54.027 157.055 54.555C157.38 55.082 157.541 55.698 157.541 56.399C157.541 57.1 157.38 57.714 157.055 58.243C156.733 58.77 156.277 59.181 155.694 59.472C155.109 59.763 154.436 59.907 153.673 59.907H150.487V52.89Z" fill="#F9E2C4"/>
</svg>
