<?xml version="1.0" encoding="UTF-8"?> <svg xmlns="http://www.w3.org/2000/svg" width="193" height="123" viewBox="0 0 193 123" fill="none"> <path d="M15.574 59.3264C15.574 61.0204 14.948 62.4764 13.697 63.6924C12.299 65.0574 10.468 65.7394 8.20502 65.7394C7.27202 65.7394 6.21302 65.5264 5.02402 65.0994C3.83502 64.6724 3.117 64.4594 2.867 64.4594C2.582 64.4594 2.37202 64.5504 2.23502 64.7324C2.07602 64.9604 1.92202 65.2954 1.77502 65.7384H1.00702L0 58.1994H0.835999C1.439 60.0184 2.29102 61.4634 3.39502 62.5324C4.66802 63.7944 6.192 64.4254 7.966 64.4254C9.217 64.4254 10.217 64.0394 10.968 63.2654C11.684 62.5264 12.042 61.5944 12.042 60.4684C12.042 58.8874 11.075 57.4214 9.14301 56.0684C7.35801 54.9544 5.56702 53.8284 3.77002 52.6914C1.81402 51.2024 0.835999 49.5134 0.835999 47.6254C0.835999 45.8974 1.44401 44.4534 2.66101 43.2934C3.84401 42.1564 5.333 41.5874 7.13 41.5874C8.006 41.5874 8.98403 41.7694 10.064 42.1334C11.133 42.5204 11.821 42.7134 12.128 42.7134C12.378 42.7134 12.594 42.6284 12.775 42.4574C12.946 42.3104 13.099 42.0314 13.236 41.6214H13.901L14.703 49.0584H13.833C13.39 47.1934 12.619 45.7294 11.521 44.6664C10.424 43.6034 9.096 43.0714 7.539 43.0714C6.493 43.0714 5.64301 43.3594 4.98901 43.9334C4.33501 44.5074 4.009 45.2724 4.009 46.2274C4.009 47.6944 4.99802 49.0924 6.97702 50.4234C8.84102 51.6064 10.706 52.7774 12.572 53.9374C14.573 55.5294 15.574 57.3254 15.574 59.3264Z" fill="white"></path> <path d="M43.386 48.3934C43.386 50.6564 42.504 52.3794 40.742 53.5614C39.058 54.6864 36.751 55.2494 33.817 55.2494C33.657 55.2494 33.515 55.2494 33.39 55.2494C32.855 55.2494 32.242 55.2154 31.548 55.1464V62.3104C31.548 63.0034 31.758 63.5274 32.179 63.8794C32.713 64.3124 33.594 64.5274 34.823 64.5274V65.2264H24.947V64.5274C26.061 64.5274 26.851 64.3284 27.318 63.9304C27.761 63.5324 27.983 62.9864 27.983 62.2934V45.1004C27.983 44.4304 27.773 43.9064 27.352 43.5314C26.84 43.0874 26.039 42.8654 24.947 42.8654V42.1664H34.823C37.245 42.1664 39.241 42.6784 40.81 43.7014C42.528 44.8284 43.386 46.3924 43.386 48.3934ZM39.514 48.4954C39.514 46.6304 38.826 45.2664 37.451 44.4014C36.404 43.7644 35.006 43.4464 33.255 43.4464C33.187 43.4464 33.124 43.4464 33.067 43.4464C32.35 43.4464 31.924 43.5094 31.788 43.6344C31.629 43.8054 31.55 44.2944 31.55 45.1014V53.6984C31.754 53.7214 32.067 53.7324 32.488 53.7324C32.909 53.7554 33.273 53.7774 33.58 53.8004C35.422 53.8004 36.832 53.4304 37.81 52.6914C38.946 51.8054 39.514 50.4064 39.514 48.4954Z" fill="white"></path> <path d="M75.8041 65.2284H66.9681V64.5294C67.8321 64.5294 68.4351 64.4384 68.7771 64.2564C69.1301 64.0864 69.3051 63.7784 69.3051 63.3354C69.3051 63.0624 69.2711 62.7834 69.2021 62.4994C69.1111 62.2494 68.9121 61.7494 68.6051 60.9984L67.2411 57.7404H58.2011L56.8371 61.0324C56.6201 61.5214 56.4791 61.8964 56.4101 62.1574C56.3191 62.4074 56.2731 62.6754 56.2731 62.9594C56.2731 63.5394 56.4841 63.9484 56.9041 64.1874C57.3021 64.4154 57.8831 64.5284 58.6441 64.5284V65.2274H51.7361V64.5284C52.5781 64.5284 53.2651 64.2044 53.8001 63.5564C54.1411 63.1354 54.5561 62.3514 55.0451 61.2024L63.3681 41.7924H64.1361L73.0391 62.2264C73.3921 63.0454 73.7041 63.5914 73.9771 63.8634C74.4201 64.3074 75.0291 64.5294 75.8021 64.5294V65.2284H75.8041ZM66.6441 56.2564L62.7391 46.7564L58.8331 56.2564H66.6441Z" fill="white"></path> <path d="M104.042 48.1034H103.189C102.518 45.8974 101.858 44.5844 101.21 44.1634C100.527 43.7774 98.708 43.5834 95.752 43.5834V62.3124C95.752 63.0054 95.962 63.5294 96.383 63.8814C96.917 64.3144 97.804 64.5294 99.044 64.5294V65.2284H88.914V64.5294C90.165 64.5294 91.023 64.3304 91.489 63.9324C91.955 63.5574 92.188 63.0114 92.188 62.2954V43.5844C89.232 43.5844 87.429 43.7784 86.782 44.1644C86.099 44.5624 85.423 45.8754 84.752 48.1044H83.916L84.121 42.1684H103.821L104.042 48.1034Z" fill="white"></path> <path d="M122.474 65.2284H112.342V64.5294C113.593 64.5294 114.451 64.3304 114.918 63.9324C115.384 63.5574 115.617 63.0114 115.617 62.2954V45.1024C115.617 44.4094 115.412 43.8864 115.003 43.5334C114.457 43.0894 113.57 42.8674 112.342 42.8674V42.1684H122.474V42.8674C121.212 42.8674 120.325 43.0774 119.813 43.4984C119.392 43.8514 119.182 44.3854 119.182 45.1014V62.2944C119.182 62.9874 119.392 63.5114 119.813 63.8634C120.348 64.3074 121.235 64.5294 122.474 64.5294V65.2284V65.2284Z" fill="white"></path> <path d="M154.926 42.8674C153.617 43.0154 152.771 43.2944 152.384 43.7034C151.895 44.2154 151.651 45.2104 151.651 46.6884V57.0594C151.651 59.9934 150.889 62.1704 149.366 63.5924C147.853 65.0254 145.641 65.7414 142.73 65.7414C139.911 65.7414 137.744 65.0394 136.232 63.6354C134.719 62.2314 133.963 60.1304 133.963 57.3334V45.8034C133.963 44.6204 133.752 43.8304 133.332 43.4324C132.889 43.0574 132.087 42.8694 130.927 42.8694V42.1704H140.666V42.8694C139.37 42.8694 138.522 43.0794 138.125 43.5004C137.727 43.9214 137.527 44.6774 137.527 45.7694V57.5724C137.527 59.7214 138.016 61.3534 138.994 62.4674C139.949 63.5934 141.473 64.1554 143.565 64.1554C145.691 64.1554 147.312 63.5814 148.426 62.4324C149.518 61.3184 150.064 59.5504 150.064 57.1274V47.0304C150.064 45.4494 149.842 44.3524 149.399 43.7384C148.966 43.1584 148.086 42.8684 146.754 42.8684V42.1694H154.925V42.8674H154.926Z" fill="white"></path> <path d="M192.972 65.2284H183.25V64.5294C184.398 64.5294 185.205 64.3304 185.672 63.9324C186.115 63.5344 186.337 62.9884 186.337 62.2954V45.3574L177.383 65.2284H176.904L168.137 46.1594V61.1694C168.137 62.2274 168.33 63.0114 168.717 63.5234C169.229 64.1944 170.15 64.5294 171.48 64.5294V65.2284H163.242V64.5294C164.55 64.5294 165.471 64.1944 166.006 63.5234C166.392 63.0114 166.586 62.2274 166.586 61.1694V45.1704C166.586 44.4084 166.403 43.8624 166.04 43.5334C165.551 43.0894 164.652 42.8674 163.345 42.8674V42.1684H170.185L178.184 59.4984L185.979 42.1684H192.905V42.8674C191.733 42.8674 190.915 43.0774 190.448 43.4984C190.073 43.8514 189.885 44.3854 189.885 45.1014V62.2944C189.885 62.9874 190.084 63.5114 190.482 63.8634C190.971 64.3074 191.801 64.5294 192.972 64.5294V65.2284V65.2284Z" fill="white"></path> <path d="M45.0051 35.6732C55.9671 16.5442 74.7491 4.32424 97.0041 3.64424C119.179 2.96524 137.673 15.8732 146.719 35.7242C146.853 36.0172 147.283 35.7632 147.151 35.4722C138.076 15.5572 120.18 3.33024 98.1691 3.13224C75.4401 2.92724 55.6451 16.1032 44.5741 35.4222C44.4141 35.7012 44.8451 35.9532 45.0051 35.6732Z" fill="white"></path> <path d="M150.439 70.0943C147.781 81.9123 142.595 92.8293 134.258 101.702C124.597 111.984 111.368 116.425 97.5202 117.008C90.1312 117.319 82.7822 116.103 75.7502 113.896C68.8542 111.731 62.2652 109.197 56.5772 104.642C46.7452 96.7683 39.6312 84.2253 37.4572 71.9213C37.4002 71.6043 36.9192 71.7383 36.9752 72.0543C39.3002 85.2103 46.9582 97.5753 57.3732 105.916C62.3442 109.897 68.0462 111.561 73.8762 113.775C81.4162 116.638 89.5002 117.626 97.5202 117.508C125.603 117.097 145.007 96.5203 150.921 70.2273C150.992 69.9133 150.51 69.7803 150.439 70.0943Z" fill="white"></path> <path d="M42.2172 35.6733C53.0282 17.8303 71.7662 5.17426 92.9472 4.44826C113.352 3.74926 129.395 18.8663 138.915 35.4543C139.075 35.7343 139.508 35.4823 139.347 35.2023C129.481 18.0103 113.707 3.92826 92.9481 3.94826C71.7951 3.96926 52.4132 17.8803 41.7862 35.4213C41.6182 35.6983 42.0502 35.9493 42.2172 35.6733Z" fill="white"></path> <path d="M147.379 72.108C143.896 101.075 115.636 121.832 87.6188 121.977C75.6548 122.039 63.8168 118.254 54.0708 111.357C41.1418 102.209 34.4218 87.515 33.2508 71.986C33.2268 71.667 32.7268 71.664 32.7508 71.986C33.8908 87.095 40.0238 100.585 51.8078 110.255C61.4828 118.195 73.9918 122.022 86.3668 122.458C115.103 123.469 144.357 101.405 147.88 72.108C147.917 71.788 147.417 71.792 147.379 72.108Z" fill="white"></path> <path d="M39.382 35.5682C47.492 15.3262 67.335 0.888252 89.336 0.506252C111.546 0.120252 132.041 18.0043 143.401 35.6733C143.575 35.9443 144.007 35.6933 143.833 35.4213C132.071 17.1283 111.98 0.350253 89.336 0.00525257C67.247 -0.330747 46.889 15.4953 38.899 35.4343C38.78 35.7343 39.264 35.8632 39.382 35.5682Z" fill="white"></path> <path d="M154.158 71.9862C151.626 98.8202 125.822 120.976 99.3942 122.163C92.0972 122.491 85.3962 120.409 78.5552 118.229C71.2802 115.911 64.0692 112.509 58.1742 107.633C47.3132 98.6492 40.1331 85.7852 36.8621 72.2022C36.7871 71.8892 36.3042 72.0212 36.3802 72.3352C39.7322 86.2532 47.0282 98.5552 57.8202 107.987C68.4122 117.244 85.4682 122.736 99.3932 122.663C126.054 122.523 152.173 98.2972 154.657 71.9862C154.688 71.6652 154.188 71.6682 154.158 71.9862Z" fill="white"></path> <path d="M66.1962 81.1773C66.1962 82.2383 65.9022 83.0493 65.3122 83.6093C64.7242 84.1713 63.8752 84.4513 62.7682 84.4513H60.9702V78.0263H62.9562C63.9782 78.0263 64.7742 78.3013 65.3432 78.8523C65.9122 79.4033 66.1962 80.1783 66.1962 81.1773ZM65.0882 81.2123C65.0882 79.6743 64.3682 78.9053 62.9312 78.9053H62.0212V83.5683H62.7682C64.3152 83.5683 65.0882 82.7833 65.0882 81.2123Z" fill="white"></path> <path d="M80.2102 84.4513H76.5752V78.0263H80.2102V78.9143H77.6262V80.6633H80.0482V81.5423H77.6262V83.5593H80.2102V84.4513Z" fill="white"></path> <path d="M92.8182 84.4513H91.7682V78.9273H89.8772V78.0263H94.7072V78.9273H92.8172V84.4513H92.8182Z" fill="white"></path> <path d="M110.396 81.2303C110.396 82.2763 110.134 83.0893 109.611 83.6693C109.089 84.2493 108.347 84.5393 107.39 84.5393C106.419 84.5393 105.675 84.2513 105.155 83.6763C104.635 83.1003 104.375 82.2823 104.375 81.2213C104.375 80.1603 104.637 79.3463 105.16 78.7783C105.682 78.2103 106.429 77.9253 107.398 77.9253C108.353 77.9253 109.091 78.2143 109.613 78.7913C110.135 79.3683 110.396 80.1813 110.396 81.2303ZM105.492 81.2303C105.492 82.0213 105.651 82.6213 105.971 83.0293C106.29 83.4383 106.763 83.6423 107.391 83.6423C108.014 83.6423 108.486 83.4403 108.803 83.0363C109.121 82.6323 109.28 82.0303 109.28 81.2303C109.28 80.4423 109.123 79.8443 108.808 79.4373C108.493 79.0303 108.024 78.8263 107.399 78.8263C106.769 78.8263 106.295 79.0303 105.973 79.4373C105.652 79.8443 105.492 80.4423 105.492 81.2303Z" fill="white"></path> <path d="M125.508 84.4513H124.3L122.691 81.8233L121.07 84.4513H119.945L122.076 81.1203L120.082 78.0263H121.25L122.736 80.4563L124.22 78.0263H125.355L123.346 81.1373L125.508 84.4513Z" fill="white"></path> </svg> 